<svg version="1.1" xmlns="http://www.w3.org/2000/svg" xmlns:xlink="http://www.w3.org/1999/xlink" width="3300" height="2200" viewBox="0 0 3300 2200">
    <g id="Notes">
        <rect height="2200" id="artboard" style="fill:white;opacity:1" width="3300" x="0" y="0"></rect>
        <line style="fill:none;stroke:black;opacity:1;stroke-width:0.5;" x1="263" x2="3036" y1="292" y2="292"></line>
        <text style="stroke:none;fill:black;font-family:sans-serif;font-size:13;font-weight:bold;" transform="matrix(1 0 0 1 263 322)">Weight/Scale Variations</text>
        <text style="stroke:none;fill:black;font-family:sans-serif;font-size:13;text-anchor:middle;" transform="matrix(1 0 0 1 559.711 322)">Ultralight</text>
        <text style="stroke:none;fill:black;font-family:sans-serif;font-size:13;text-anchor:middle;" transform="matrix(1 0 0 1 856.422 322)">Thin</text>
        <text style="stroke:none;fill:black;font-family:sans-serif;font-size:13;text-anchor:middle;" transform="matrix(1 0 0 1 1153.13 322)">Light</text>
        <text style="stroke:none;fill:black;font-family:sans-serif;font-size:13;text-anchor:middle;" transform="matrix(1 0 0 1 1449.84 322)">Regular</text>
        <text style="stroke:none;fill:black;font-family:sans-serif;font-size:13;text-anchor:middle;" transform="matrix(1 0 0 1 1746.56 322)">Medium</text>
        <text style="stroke:none;fill:black;font-family:sans-serif;font-size:13;text-anchor:middle;" transform="matrix(1 0 0 1 2043.27 322)">Semibold</text>
        <text style="stroke:none;fill:black;font-family:sans-serif;font-size:13;text-anchor:middle;" transform="matrix(1 0 0 1 2339.98 322)">Bold</text>
        <text style="stroke:none;fill:black;font-family:sans-serif;font-size:13;text-anchor:middle;" transform="matrix(1 0 0 1 2636.69 322)">Heavy</text>
        <text style="stroke:none;fill:black;font-family:sans-serif;font-size:13;text-anchor:middle;" transform="matrix(1 0 0 1 2933.4 322)">Black</text>
        <line style="fill:none;stroke:black;opacity:1;stroke-width:0.5;" x1="263" x2="3036" y1="1903" y2="1903"></line>
        <g transform="matrix(1 0 0 1 263 1933)">
            <path d="M9.24805 0.830078Q10.8691 0.830078 12.2949 0.214844Q13.7207-0.400391 14.8096-1.49414Q15.8984-2.58789 16.5186-4.01367Q17.1387-5.43945 17.1387-7.05078Q17.1387-8.66211 16.5186-10.0879Q15.8984-11.5137 14.8047-12.6074Q13.7109-13.7012 12.2852-14.3164Q10.8594-14.9316 9.23828-14.9316Q7.62695-14.9316 6.20117-14.3164Q4.77539-13.7012 3.69141-12.6074Q2.60742-11.5137 1.9873-10.0879Q1.36719-8.66211 1.36719-7.05078Q1.36719-5.43945 1.9873-4.01367Q2.60742-2.58789 3.69629-1.49414Q4.78516-0.400391 6.21094 0.214844Q7.63672 0.830078 9.24805 0.830078ZM9.24805-0.654297Q7.91992-0.654297 6.7627-1.14746Q5.60547-1.64062 4.73145-2.51953Q3.85742-3.39844 3.36426-4.56055Q2.87109-5.72266 2.87109-7.05078Q2.87109-8.37891 3.35938-9.54102Q3.84766-10.7031 4.72168-11.582Q5.5957-12.4609 6.75293-12.9541Q7.91016-13.4473 9.23828-13.4473Q10.5762-13.4473 11.7334-12.9541Q12.8906-12.4609 13.7695-11.582Q14.6484-10.7031 15.1465-9.54102Q15.6445-8.37891 15.6445-7.05078Q15.6445-5.72266 15.1514-4.56055Q14.6582-3.39844 13.7842-2.51953Q12.9102-1.64062 11.748-1.14746Q10.5859-0.654297 9.24805-0.654297ZM5.83984-7.04102Q5.83984-6.71875 6.04492-6.51855Q6.25-6.31836 6.5918-6.31836L8.50586-6.31836L8.50586-4.39453Q8.50586-4.0625 8.70605-3.85742Q8.90625-3.65234 9.22852-3.65234Q9.56055-3.65234 9.76562-3.85742Q9.9707-4.0625 9.9707-4.39453L9.9707-6.31836L11.8945-6.31836Q12.2266-6.31836 12.4316-6.51855Q12.6367-6.71875 12.6367-7.04102Q12.6367-7.37305 12.4316-7.57812Q12.2266-7.7832 11.8945-7.7832L9.9707-7.7832L9.9707-9.69727Q9.9707-10.0391 9.76562-10.2441Q9.56055-10.4492 9.22852-10.4492Q8.90625-10.4492 8.70605-10.2441Q8.50586-10.0391 8.50586-9.69727L8.50586-7.7832L6.5918-7.7832Q6.25-7.7832 6.04492-7.57812Q5.83984-7.37305 5.83984-7.04102Z"></path>
        </g>
        <g transform="matrix(1 0 0 1 281.867 1933)">
            <path d="M11.709 2.91016Q13.75 2.91016 15.5518 2.12891Q17.3535 1.34766 18.7305-0.0292969Q20.1074-1.40625 20.8887-3.20801Q21.6699-5.00977 21.6699-7.05078Q21.6699-9.0918 20.8887-10.8936Q20.1074-12.6953 18.7305-14.0723Q17.3535-15.4492 15.5469-16.2305Q13.7402-17.0117 11.6992-17.0117Q9.6582-17.0117 7.85645-16.2305Q6.05469-15.4492 4.68262-14.0723Q3.31055-12.6953 2.5293-10.8936Q1.74805-9.0918 1.74805-7.05078Q1.74805-5.00977 2.5293-3.20801Q3.31055-1.40625 4.6875-0.0292969Q6.06445 1.34766 7.86621 2.12891Q9.66797 2.91016 11.709 2.91016ZM11.709 1.25Q9.98047 1.25 8.47656 0.605469Q6.97266-0.0390625 5.83496-1.17676Q4.69727-2.31445 4.05762-3.81836Q3.41797-5.32227 3.41797-7.05078Q3.41797-8.7793 4.05762-10.2832Q4.69727-11.7871 5.83008-12.9297Q6.96289-14.0723 8.4668-14.7119Q9.9707-15.3516 11.6992-15.3516Q13.4277-15.3516 14.9316-14.7119Q16.4355-14.0723 17.5781-12.9297Q18.7207-11.7871 19.3652-10.2832Q20.0098-8.7793 20.0098-7.05078Q20.0098-5.32227 19.3701-3.81836Q18.7305-2.31445 17.5928-1.17676Q16.4551-0.0390625 14.9463 0.605469Q13.4375 1.25 11.709 1.25ZM7.39258-7.04102Q7.39258-6.68945 7.62695-6.46484Q7.86133-6.24023 8.23242-6.24023L10.8789-6.24023L10.8789-3.57422Q10.8789-3.21289 11.1035-2.9834Q11.3281-2.75391 11.6797-2.75391Q12.0508-2.75391 12.2852-2.9834Q12.5195-3.21289 12.5195-3.57422L12.5195-6.24023L15.1758-6.24023Q15.5371-6.24023 15.7715-6.46484Q16.0059-6.68945 16.0059-7.04102Q16.0059-7.41211 15.7715-7.6416Q15.5371-7.87109 15.1758-7.87109L12.5195-7.87109L12.5195-10.5176Q12.5195-10.8984 12.2852-11.1279Q12.0508-11.3574 11.6797-11.3574Q11.3281-11.3574 11.1035-11.1279Q10.8789-10.8984 10.8789-10.5176L10.8789-7.87109L8.23242-7.87109Q7.85156-7.87109 7.62207-7.6416Q7.39258-7.41211 7.39258-7.04102Z"></path>
        </g>
        <g transform="matrix(1 0 0 1 305.646 1933)">
            <path d="M14.9707 5.66406Q17.0605 5.66406 18.96 5.01465Q20.8594 4.36523 22.4512 3.19336Q24.043 2.02148 25.2197 0.429688Q26.3965-1.16211 27.0459-3.06641Q27.6953-4.9707 27.6953-7.05078Q27.6953-9.14062 27.0459-11.04Q26.3965-12.9395 25.2197-14.5312Q24.043-16.123 22.4512-17.2998Q20.8594-18.4766 18.9551-19.126Q17.0508-19.7754 14.9609-19.7754Q12.8711-19.7754 10.9717-19.126Q9.07227-18.4766 7.48535-17.2998Q5.89844-16.123 4.72168-14.5312Q3.54492-12.9395 2.90039-11.04Q2.25586-9.14062 2.25586-7.05078Q2.25586-4.9707 2.90527-3.06641Q3.55469-1.16211 4.72656 0.429688Q5.89844 2.02148 7.49023 3.19336Q9.08203 4.36523 10.9814 5.01465Q12.8809 5.66406 14.9707 5.66406ZM14.9707 3.84766Q13.1641 3.84766 11.5283 3.2959Q9.89258 2.74414 8.53516 1.74805Q7.17773 0.751953 6.17676-0.610352Q5.17578-1.97266 4.62891-3.6084Q4.08203-5.24414 4.08203-7.05078Q4.08203-8.86719 4.62891-10.5029Q5.17578-12.1387 6.17188-13.501Q7.16797-14.8633 8.52539-15.8594Q9.88281-16.8555 11.5186-17.4023Q13.1543-17.9492 14.9609-17.9492Q16.7773-17.9492 18.4131-17.4023Q20.0488-16.8555 21.4111-15.8594Q22.7734-14.8633 23.7695-13.501Q24.7656-12.1387 25.3174-10.5029Q25.8691-8.86719 25.8691-7.05078Q25.8789-5.24414 25.332-3.6084Q24.7852-1.97266 23.7842-0.610352Q22.7832 0.751953 21.4209 1.74805Q20.0586 2.74414 18.4229 3.2959Q16.7871 3.84766 14.9707 3.84766ZM9.45312-7.04102Q9.45312-6.66016 9.71191-6.41113Q9.9707-6.16211 10.3711-6.16211L14.0625-6.16211L14.0625-2.46094Q14.0625-2.06055 14.3115-1.80664Q14.5605-1.55273 14.9414-1.55273Q15.3516-1.55273 15.6055-1.80664Q15.8594-2.06055 15.8594-2.46094L15.8594-6.16211L19.5605-6.16211Q19.9609-6.16211 20.2148-6.41113Q20.4688-6.66016 20.4688-7.04102Q20.4688-7.45117 20.2148-7.70508Q19.9609-7.95898 19.5605-7.95898L15.8594-7.95898L15.8594-11.6504Q15.8594-12.0605 15.6055-12.3145Q15.3516-12.5684 14.9414-12.5684Q14.5605-12.5684 14.3115-12.3096Q14.0625-12.0508 14.0625-11.6504L14.0625-7.95898L10.3711-7.95898Q9.96094-7.95898 9.70703-7.70508Q9.45312-7.45117 9.45312-7.04102Z"></path>
        </g>
        <text style="stroke:none;fill:black;font-family:sans-serif;font-size:13;font-weight:bold;" transform="matrix(1 0 0 1 263 1953)">Design Variations</text>
        <text style="stroke:none;fill:black;font-family:sans-serif;font-size:13;" transform="matrix(1 0 0 1 263 1971)">Symbols are supported in up to nine weights and three scales.</text>
        <text style="stroke:none;fill:black;font-family:sans-serif;font-size:13;" transform="matrix(1 0 0 1 263 1989)">For optimal layout with text and other symbols, vertically align</text>
        <text style="stroke:none;fill:black;font-family:sans-serif;font-size:13;" transform="matrix(1 0 0 1 263 2007)">symbols with the adjacent text.</text>
        <line style="fill:none;stroke:#00AEEF;stroke-width:0.5;opacity:1.0;" x1="776" x2="776" y1="1919" y2="1933"></line>
        <g transform="matrix(1 0 0 1 776 1933)">
            <path d="M3.31055 0.15625Q3.70117 0.15625 3.91602-0.00976562Q4.13086-0.175781 4.26758-0.585938L5.52734-4.0332L11.2891-4.0332L12.5488-0.585938Q12.6855-0.175781 12.9004-0.00976562Q13.1152 0.15625 13.4961 0.15625Q13.8867 0.15625 14.1162-0.0585938Q14.3457-0.273438 14.3457-0.644531Q14.3457-0.869141 14.2383-1.17188L9.6582-13.3691Q9.48242-13.8184 9.17969-14.043Q8.87695-14.2676 8.4082-14.2676Q7.5-14.2676 7.17773-13.3789L2.59766-1.16211Q2.49023-0.859375 2.49023-0.634766Q2.49023-0.263672 2.70996-0.0537109Q2.92969 0.15625 3.31055 0.15625ZM6.00586-5.51758L8.37891-12.0898L8.42773-12.0898L10.8008-5.51758Z"></path>
        </g>
        <line style="fill:none;stroke:#00AEEF;stroke-width:0.5;opacity:1.0;" x1="793.197" x2="793.197" y1="1919" y2="1933"></line>
        <text style="stroke:none;fill:black;font-family:sans-serif;font-size:13;font-weight:bold;" transform="matrix(1 0 0 1 776 1953)">Margins</text>
        <text style="stroke:none;fill:black;font-family:sans-serif;font-size:13;" transform="matrix(1 0 0 1 776 1971)">Leading and trailing margins on the left and right side of each symbol</text>
        <text style="stroke:none;fill:black;font-family:sans-serif;font-size:13;" transform="matrix(1 0 0 1 776 1989)">can be adjusted by modifying the x-location of the margin guidelines.</text>
        <text style="stroke:none;fill:black;font-family:sans-serif;font-size:13;" transform="matrix(1 0 0 1 776 2007)">Modifications are automatically applied proportionally to all</text>
        <text style="stroke:none;fill:black;font-family:sans-serif;font-size:13;" transform="matrix(1 0 0 1 776 2025)">scales and weights.</text>
        <g transform="matrix(1 0 0 1 1289 1933)">
            <path d="M2.8418 1.86523L4.54102 3.57422Q5.18555 4.22852 5.90332 4.17969Q6.62109 4.13086 7.31445 3.35938L18.0078-8.42773L17.041-9.4043L6.42578 2.27539Q6.16211 2.57812 5.89355 2.61719Q5.625 2.65625 5.27344 2.30469L4.10156 1.14258Q3.75 0.791016 3.79395 0.522461Q3.83789 0.253906 4.14062-0.0195312L15.6152-10.8203L14.6387-11.7871L3.04688-0.898438Q2.30469-0.214844 2.25098 0.498047Q2.19727 1.21094 2.8418 1.86523ZM9.25781-16.3281Q8.94531-16.0254 8.90625-15.6348Q8.86719-15.2441 9.04297-14.9512Q9.21875-14.6777 9.55566-14.541Q9.89258-14.4043 10.3809-14.5215Q11.4746-14.7754 12.5977-14.7314Q13.7207-14.6875 14.7949-13.9844L14.209-12.5293Q13.9551-11.9043 14.0674-11.4404Q14.1797-10.9766 14.5801-10.5664L16.875-8.25195Q17.2363-7.88086 17.5781-7.82227Q17.9199-7.76367 18.3398-7.8418L19.4043-8.03711L20.0684-7.36328L20.0293-6.80664Q20-6.43555 20.1221-6.12305Q20.2441-5.81055 20.6055-5.44922L21.3672-4.70703Q21.7285-4.3457 22.1533-4.33105Q22.5781-4.31641 22.9297-4.66797L25.8398-7.58789Q26.1914-7.93945 26.1816-8.35449Q26.1719-8.76953 25.8105-9.13086L25.0391-9.89258Q24.6875-10.2539 24.3799-10.3857Q24.0723-10.5176 23.7109-10.4883L23.1348-10.4395L22.4902-11.0742L22.7344-12.1973Q22.832-12.6172 22.6953-12.9834Q22.5586-13.3496 22.1191-13.7891L19.9219-15.9766Q18.6719-17.2168 17.2607-17.8369Q15.8496-18.457 14.4189-18.4814Q12.9883-18.5059 11.665-17.959Q10.3418-17.4121 9.25781-16.3281ZM10.752-15.957Q11.6602-16.6211 12.7002-16.9043Q13.7402-17.1875 14.8047-17.085Q15.8691-16.9824 16.8701-16.5137Q17.8711-16.0449 18.7012-15.2051L21.1328-12.793Q21.3086-12.6172 21.3525-12.4512Q21.3965-12.2852 21.3379-12.0312L21.0156-10.5469L22.5195-9.0625L23.5059-9.12109Q23.6914-9.13086 23.7891-9.09668Q23.8867-9.0625 24.0332-8.91602L24.6094-8.33984L22.168-5.89844L21.5918-6.47461Q21.4453-6.62109 21.4062-6.71875Q21.3672-6.81641 21.377-7.01172L21.4453-7.98828L19.9512-9.47266L18.4277-9.21875Q18.1836-9.16992 18.042-9.2041Q17.9004-9.23828 17.7148-9.41406L15.7129-11.416Q15.5176-11.5918 15.4932-11.7529Q15.4688-11.9141 15.5859-12.1875L16.4648-14.2773Q15.293-15.3711 13.8281-15.791Q12.3633-16.2109 10.8398-15.7617Q10.7227-15.7324 10.6885-15.8057Q10.6543-15.8789 10.752-15.957Z"></path>
        </g>
        <text style="stroke:none;fill:black;font-family:sans-serif;font-size:13;font-weight:bold;" transform="matrix(1 0 0 1 1289 1953)">Exporting</text>
        <text style="stroke:none;fill:black;font-family:sans-serif;font-size:13;" transform="matrix(1 0 0 1 1289 1971)">Symbols should be outlined when exporting to ensure the</text>
        <text style="stroke:none;fill:black;font-family:sans-serif;font-size:13;" transform="matrix(1 0 0 1 1289 1989)">design is preserved when submitting to Xcode.</text>
        <text id="template-version" style="stroke:none;fill:black;font-family:sans-serif;font-size:13;text-anchor:end;" transform="matrix(1 0 0 1 3036 1933)">Template v.3.0</text>
        <text style="stroke:none;fill:black;font-family:sans-serif;font-size:13;text-anchor:end;" transform="matrix(1 0 0 1 3036 1951)">Requires Xcode 13 or greater</text>
        <text id="descriptive-name" style="stroke:none;fill:black;font-family:sans-serif;font-size:13;text-anchor:end;" transform="matrix(1 0 0 1 3036 1969)">Generated from custom.pencil.circle</text>
        <text style="stroke:none;fill:black;font-family:sans-serif;font-size:13;text-anchor:end;" transform="matrix(1 0 0 1 3036 1987)">Typeset at 100 points</text>
        <text style="stroke:none;fill:black;font-family:sans-serif;font-size:13;" transform="matrix(1 0 0 1 263 726)">Small</text>
        <text style="stroke:none;fill:black;font-family:sans-serif;font-size:13;" transform="matrix(1 0 0 1 263 1156)">Medium</text>
        <text style="stroke:none;fill:black;font-family:sans-serif;font-size:13;" transform="matrix(1 0 0 1 263 1586)">Large</text>
    </g>
    <g id="Guides">
        <g id="H-reference" style="fill:#27AAE1;stroke:none;" transform="matrix(1 0 0 1 339 696)">
            <path d="M0.976562 0L3.66211 0L29.3457-67.1387L30.0293-67.1387L30.0293-70.459L28.125-70.459ZM11.6699-24.4629L46.9727-24.4629L46.2402-26.709L12.4512-26.709ZM55.127 0L57.7637 0L30.6152-70.459L29.4434-70.459L29.4434-67.1387Z"></path>
        </g>
        <line id="Baseline-S" style="fill:none;stroke:#27AAE1;opacity:1;stroke-width:0.5;" x1="263" x2="3036" y1="696" y2="696"></line>
        <line id="Capline-S" style="fill:none;stroke:#27AAE1;opacity:1;stroke-width:0.5;" x1="263" x2="3036" y1="625.541" y2="625.541"></line>
        <g id="H-reference" style="fill:#27AAE1;stroke:none;" transform="matrix(1 0 0 1 339 1126)">
            <path d="M0.976562 0L3.66211 0L29.3457-67.1387L30.0293-67.1387L30.0293-70.459L28.125-70.459ZM11.6699-24.4629L46.9727-24.4629L46.2402-26.709L12.4512-26.709ZM55.127 0L57.7637 0L30.6152-70.459L29.4434-70.459L29.4434-67.1387Z"></path>
        </g>
        <line id="Baseline-M" style="fill:none;stroke:#27AAE1;opacity:1;stroke-width:0.5;" x1="263" x2="3036" y1="1126" y2="1126"></line>
        <line id="Capline-M" style="fill:none;stroke:#27AAE1;opacity:1;stroke-width:0.5;" x1="263" x2="3036" y1="1055.54" y2="1055.54"></line>
        <g id="H-reference" style="fill:#27AAE1;stroke:none;" transform="matrix(1 0 0 1 339 1556)">
            <path d="M0.976562 0L3.66211 0L29.3457-67.1387L30.0293-67.1387L30.0293-70.459L28.125-70.459ZM11.6699-24.4629L46.9727-24.4629L46.2402-26.709L12.4512-26.709ZM55.127 0L57.7637 0L30.6152-70.459L29.4434-70.459L29.4434-67.1387Z"></path>
        </g>
        <line id="Baseline-L" style="fill:none;stroke:#27AAE1;opacity:1;stroke-width:0.5;" x1="263" x2="3036" y1="1556" y2="1556"></line>
        <line id="Capline-L" style="fill:none;stroke:#27AAE1;opacity:1;stroke-width:0.5;" x1="263" x2="3036" y1="1485.54" y2="1485.54"></line>
        <line id="left-margin-Ultralight-S" style="fill:none;stroke:#00AEEF;stroke-width:0.5;opacity:1.0;" x1="510.11021619796753" x2="510.11021619796753" y1="600.784" y2="720.121"></line>
        <line id="right-margin-Ultralight-S" style="fill:none;stroke:#00AEEF;stroke-width:0.5;opacity:1.0;" x1="609.311780872345" x2="609.311780872345" y1="600.784" y2="720.121"></line>
        <line id="left-margin-Regular-S" style="fill:none;stroke:#00AEEF;stroke-width:0.5;opacity:1.0;" x1="1396.4511950492858" x2="1396.4511950492858" y1="600.784" y2="720.121"></line>
        <line id="right-margin-Regular-S" style="fill:none;stroke:#00AEEF;stroke-width:0.5;opacity:1.0;" x1="1503.2387463569642" x2="1503.2387463569642" y1="600.784" y2="720.121"></line>
        <line id="left-margin-Black-S" style="fill:none;stroke:#00AEEF;stroke-width:0.5;opacity:1.0;" x1="2878.1705560684204" x2="2878.1705560684204" y1="600.784" y2="720.121"></line>
        <line id="right-margin-Black-S" style="fill:none;stroke:#00AEEF;stroke-width:0.5;opacity:1.0;" x1="2988.6294927597046" x2="2988.6294927597046" y1="600.784" y2="720.121"></line>
    </g>
<g id="Symbols"><g id="Ultralight-S" transform="matrix(1,0,0,1,504.96099853515625,606.0205078125)"><path d="M50.38971 63.47058c1.1979300000000002 0 2.17029-0.97236 2.17029-2.17029C52.56 60.10236 51.58764 59.129999999999995 50.38971 59.129999999999995c-1.1979300000000002 0-2.17029 0.97236-2.17029 2.17029C48.21942 62.498219999999996 49.19178 63.47058 50.38971 63.47058zM63.56256 50.34372c0 1.22421-0.99207 2.21628-2.21628 2.21628C60.122069999999994 52.56 59.129999999999995 51.56793 59.129999999999995 50.34372c0-1.22421 0.99207-2.21628 2.21628-2.21628C62.57049 48.12744 63.56256 49.11951 63.56256 50.34372zM63.56256 61.30029c0 1.1979300000000002-0.97236 2.17029-2.17029 2.17029s-2.17029-0.97236-2.17029-2.17029c0-1.1979300000000002 0.97236-2.17029 2.17029-2.17029S63.56256 60.10236 63.56256 61.30029zM52.56 50.29992c0 1.1979300000000002-0.97236 2.17029-2.17029 2.17029-1.1979300000000002 0-2.17029-0.97236-2.17029-2.17029s0.97236-2.17029 2.17029-2.17029C51.58764 48.12744 52.56 49.0998 52.56 50.29992zM74.46657 39.43971c0 1.22421-0.99207 2.21628-2.21628 2.21628-1.22421 0-2.21628-0.99207-2.21628-2.21628 0-1.22421 0.99207-2.21628 2.21628-2.21628C73.47449999999999 37.22343 74.46657 38.2155 74.46657 39.43971zM74.46657 50.39628c0 1.1979300000000002-0.97236 2.17029-2.17029 2.17029s-2.17029-0.97236-2.17029-2.17029c0-1.1979300000000002 0.97236-2.17029 2.17029-2.17029S74.46657 49.19616 74.46657 50.39628zM63.464009999999995 39.393719999999995c0 1.1979300000000002-0.97236 2.17029-2.17029 2.17029-1.1979300000000002 0-2.17029-0.97236-2.17029-2.17029 0-1.1979300000000002 0.97236-2.17029 2.17029-2.17029C62.49384 37.22343 63.464009999999995 38.195789999999995 63.464009999999995 39.393719999999995zM85.37057999999999 28.5357c0 1.22421-0.99207 2.21628-2.21628 2.21628-1.22421 0-2.21628-0.99207-2.21628-2.21628 0-1.22421 0.99207-2.21628 2.21628-2.21628C84.37851 26.31942 85.37057999999999 27.31149 85.37057999999999 28.5357zM85.37057999999999 39.49008c0 1.1979300000000002-0.97236 2.17029-2.17029 2.17029S81.03 40.6902 81.03 39.49008s0.97236-2.17029 2.17029-2.17029S85.37057999999999 38.29215 85.37057999999999 39.49008zM74.37021 28.48971c0 1.1979300000000002-0.97236 2.17029-2.17029 2.17029s-2.17029-0.97236-2.17029-2.17029 0.97236-2.17029 2.17029-2.17029S74.37021 27.29178 74.37021 28.48971z"></path><path d="M21.945990000000002 89.45273999999999c-3.69453-5.44872-3.01125-9.346919999999999-1.7848499999999998-11.65737C22.76067 72.89196 30.178199999999997 70.08 40.515 70.08c0.6044400000000001 0 1.095 0.49056 1.095 1.095S41.11944 72.27 40.515 72.27c-9.357869999999998 0-16.24542 2.44842-18.42009 6.55248-1.37094 2.58858-0.8124899999999999 5.75094 1.6643999999999999 9.40167 0.33945 0.50151 0.20804999999999998 1.1826-0.29127000000000003 1.52205C22.83294 90.17325 22.1847 89.80752 21.945990000000002 89.45273999999999z"></path><path d="M67.40601 71.97873l-1.4870100000000002-1.6074599999999999c1.13004-1.04244 2.2578899999999997-2.12649 3.38574-3.25434 17.9799-17.9799 27.508589999999998-38.833079999999995 20.805-45.536669999999994-6.703589999999999-6.69921-27.55458 2.8251-45.536669999999994 20.805-1.12785 1.12785-2.2140899999999997 2.2557-3.25434 3.38574l-1.6074599999999999-1.4870100000000002c1.05996-1.14756 2.16591-2.29731 3.31566-3.44706 19.46691-19.4691 40.83036-28.61235 48.63333-20.805 7.80297 7.80078-1.3358999999999999 29.16423-20.805 48.63333C69.70551 69.81282 68.55575999999999 70.91877000000001 67.40601 71.97873z"></path><path d="M22.08615 89.62137c-4.63842-4.63842-6.69921-13.06554-5.5188-22.550430000000002 1.44978-11.6508 8.354849999999999-27.293969999999998 23.38482-36.255449999999996C40.68363 30.3753 41.61 30.909660000000002 41.61 31.755V70.08h38.324999999999996c0.84972 0 1.37313 0.93075 0.93951 1.65564-7.524839999999999 12.62097-20.932019999999998 21.32403-35.863440000000004 23.28189C34.86042 96.35124 26.56251 93.98166 22.08615 89.62137zM39.42 33.73257c-13.2057 8.689919999999999-19.34427 22.907400000000003-20.67798 33.60774-1.0971899999999999 8.81913 0.72927 16.56735 4.8837 20.72178 4.27269 4.161 12.16545 5.95242 21.100649999999998 4.78296 10.58208-1.38846 24.6375-7.52703 33.23106-20.57724H40.515c-0.6044400000000001 0-1.095-0.49056-1.095-1.095V33.73257z"></path></g><g id="Regular-S" transform="matrix(1,0,0,1,1392.564970703125,603.4905078125)"><path d="M52.805 66.23c1.4821199999999999 0 2.685-1.2028800000000002 2.685-2.685S54.28712 60.86 52.805 60.86 50.120000000000005 62.06287999999999 50.120000000000005 63.545 51.322880000000005 66.23 52.805 66.23zM66.23 52.805c0 1.4821199999999999-1.2028800000000002 2.685-2.685 2.685S60.86 54.28712 60.86 52.805s1.2028800000000002-2.685 2.685-2.685S66.23 51.322880000000005 66.23 52.805zM66.23 63.545c0 1.4821199999999999-1.2028800000000002 2.685-2.685 2.685S60.86 65.02712000000001 60.86 63.545s1.2028800000000002-2.685 2.685-2.685S66.23 62.06287999999999 66.23 63.545zM55.49 52.805c0 1.4821199999999999-1.2028800000000002 2.685-2.685 2.685S50.120000000000005 54.28712 50.120000000000005 52.805s1.2028800000000002-2.685 2.685-2.685S55.49 51.322880000000005 55.49 52.805zM76.97 42.065c0 1.4821199999999999-1.2028800000000002 2.685-2.685 2.685S71.6 43.54712 71.6 42.065s1.2028800000000002-2.685 2.685-2.685S76.97 40.58288 76.97 42.065zM76.97 52.805c0 1.4821199999999999-1.2028800000000002 2.685-2.685 2.685S71.6 54.28712 71.6 52.805s1.2028800000000002-2.685 2.685-2.685S76.97 51.322880000000005 76.97 52.805zM66.23 42.065c0 1.4821199999999999-1.2028800000000002 2.685-2.685 2.685S60.86 43.54712 60.86 42.065s1.2028800000000002-2.685 2.685-2.685S66.23 40.58288 66.23 42.065zM87.71000000000001 31.325c0 1.4821199999999999-1.2028800000000002 2.685-2.685 2.685S82.34 32.80712 82.34 31.325s1.2028800000000002-2.685 2.685-2.685S87.71000000000001 29.84288 87.71000000000001 31.325zM87.71000000000001 42.065c0 1.4821199999999999-1.2028800000000002 2.685-2.685 2.685S82.34 43.54712 82.34 42.065s1.2028800000000002-2.685 2.685-2.685S87.71000000000001 40.58288 87.71000000000001 42.065zM76.97 31.325c0 1.4821199999999999-1.2028800000000002 2.685-2.685 2.685S71.6 32.80712 71.6 31.325s1.2028800000000002-2.685 2.685-2.685S76.97 29.84288 76.97 31.325z"></path><path d="M20.28965 95.10628c-2.92486-4.3139-3.3007600000000004-9.01981-1.0561-13.25137C22.5361 75.62571000000001 31.145999999999997 71.6 41.17 71.6c1.9761600000000001 0 3.58 1.6038400000000002 3.58 3.58s-1.6038400000000002 3.58-3.58 3.58c-8.3772 0-13.963790000000001 3.3437200000000002-15.61059 6.44937-0.9845000000000002 1.85444-0.7697 3.7769 0.65514 5.87836 1.1098000000000001 1.63606 0.68378 3.86282-0.9540700000000001 4.97262C23.169760000000004 97.47982 21.05577 96.23577 20.28965 95.10628z"></path><path d="M70.19664 77.8292l-4.81689-5.2984c1.67902-1.52508 3.17546-2.94813 4.58598-4.35686 20.05695-20.05874 26.02839-38.7177 21.48-43.267880000000005-3.8359699999999997-3.8377600000000003-21.35291-0.43139-43.267880000000005 21.48-1.40694 1.40873-2.83357 2.90875-4.35865 4.58419l-5.29661-4.8151c1.60026-1.76136 3.1020700000000003-3.34193 4.59135-4.83121 20.549200000000003-20.55099 43.93018000000001-30.94015 53.39212-21.48 10.362309999999999 10.3641-3.33119 35.24331-21.48 53.39212C73.53678000000001 74.72534 71.95621 76.22715000000001 70.19664 77.8292z"></path><path d="M20.721040000000002 95.62896c-5.1569899999999995-5.173100000000001-7.36406-14.110570000000001-6.06094-24.524790000000003 1.55014-12.36353 8.84439-28.937140000000003 24.675150000000002-38.3776C41.733850000000004 31.30173 44.75 33.03624 44.75 35.8v35.8h35.8c2.77808 0 4.49469 3.03047 3.07522 5.41296-9.45299 15.85224-26.049870000000002 23.14649-38.42951 24.68768C34.174679999999995 103.07178 25.562990000000003 100.46912 20.721040000000002 95.62896zM37.59 42.72193c-9.902280000000001 8.30381-14.67621 20.117810000000002-15.8236 29.271870000000003-1.01314 8.08901 0.48867000000000005 15.03242 4.02213 18.576620000000002 3.5245100000000003 3.5245100000000003 10.45002 5.03348 18.524710000000002 4.0275 9.166590000000001-1.14202 20.99849-5.9159500000000005 29.314829999999997-15.836129999999999H41.17c-1.9761600000000001 0-3.58-1.6038400000000002-3.58-3.58V42.72193z"></path></g><g id="Black-S" transform="matrix(1,0,0,1,2870.4000244140625,597.7705078125)"><path d="M58.625 71.75c1.4489999999999998 0 2.625-1.1760000000000002 2.625-2.625S60.074000000000005 66.5 58.625 66.5 56 67.67599999999999 56 69.125 57.175999999999995 71.75 58.625 71.75zM71.75 58.625c0 1.4489999999999998-1.1760000000000002 2.625-2.625 2.625S66.5 60.074000000000005 66.5 58.625s1.1760000000000002-2.625 2.625-2.625S71.75 57.175999999999995 71.75 58.625zM71.75 69.125c0 1.4489999999999998-1.1760000000000002 2.625-2.625 2.625S66.5 70.57400000000001 66.5 69.125s1.1760000000000002-2.625 2.625-2.625S71.75 67.67599999999999 71.75 69.125zM61.25 58.625c0 1.4489999999999998-1.1760000000000002 2.625-2.625 2.625S56 60.074000000000005 56 58.625s1.1760000000000002-2.625 2.625-2.625S61.25 57.175999999999995 61.25 58.625zM82.25 48.125c0 1.4489999999999998-1.1760000000000002 2.625-2.625 2.625S77 49.574 77 48.125s1.1760000000000002-2.625 2.625-2.625S82.25 46.676 82.25 48.125zM82.25 58.625c0 1.4489999999999998-1.1760000000000002 2.625-2.625 2.625S77 60.074000000000005 77 58.625s1.1760000000000002-2.625 2.625-2.625S82.25 57.175999999999995 82.25 58.625zM71.75 48.125c0 1.4489999999999998-1.1760000000000002 2.625-2.625 2.625S66.5 49.574 66.5 48.125s1.1760000000000002-2.625 2.625-2.625S71.75 46.676 71.75 48.125zM92.75 37.625c0 1.4489999999999998-1.1760000000000002 2.625-2.625 2.625S87.5 39.074 87.5 37.625s1.1760000000000002-2.625 2.625-2.625S92.75 36.176 92.75 37.625zM92.75 48.125c0 1.4489999999999998-1.1760000000000002 2.625-2.625 2.625S87.5 49.574 87.5 48.125s1.1760000000000002-2.625 2.625-2.625S92.75 46.676 92.75 48.125zM82.25 37.625c0 1.4489999999999998-1.1760000000000002 2.625-2.625 2.625S77 39.074 77 37.625s1.1760000000000002-2.625 2.625-2.625S82.25 36.176 82.25 37.625z"></path><path d="M25.865 101.5315c-3.8412499999999996-4.22625-4.83175-9.39225-2.716-14.176750000000002C26.81525 79.0685 39.4765 73.5 49 73.5c2.89975 0 5.25 2.35025 5.25 5.25s-2.35025 5.25-5.25 5.25c-6.818 0-14.7665 4.2525-16.24875 7.60375-0.224 0.5075-0.56175 1.274 0.88375 2.86475 1.9495000000000002 2.1455 1.792 5.4670000000000005-0.35350000000000004 7.416500000000001C31.20425 103.77499999999999 27.87575 103.7435 25.865 101.5315z"></path><path d="M79.5515 82.6175l-7.09975-7.736750000000001c1.01325-0.92925 2.0265-1.90925 3.02225-2.905 18.63925-18.6375 25.3855-37.194500000000005 21.439249999999998-41.138999999999996-3.9200000000000004-3.9217500000000003-22.32825 2.625-41.138999999999996 21.4375-0.9939999999999999 0.9957499999999999-1.9757500000000001 2.009-2.905 3.02225l-7.738499999999999-7.09975c1.029-1.12175 2.1157500000000002-2.2435 3.21825-3.346 19.237750000000002-19.236 44.642500000000005-32.779250000000005 55.98775-21.439249999999998 10.6295 10.62775-0.665 35.215250000000005-21.4375 55.98775C81.79675 80.50175 80.675 81.5885 79.5515 82.6175z"></path><path d="M26.026 101.70125c-5.608750000000001-5.5755-8.0675-15.05875-6.72525-25.998 1.6415-13.35775 9.59875-31.33025 27.01125-41.71125C49.81725 31.904250000000005 54.25 34.44 54.25 38.5v35h35c4.077500000000001 0 6.58875 4.453749999999999 4.508 7.93975-10.38275 17.409-28.353500000000004 25.368000000000002-41.71125 27.0095C51.693250000000006 108.49125 35.36225 111.0935 26.026 101.70125zM43.75 49.07c-8.71325 8.37725-12.969249999999999 19.3165-14.026250000000001 27.914250000000003-0.9327500000000001 7.582750000000001 0.462 14.047249999999998 3.7275 17.29175 3.2672499999999998 3.29 9.740499999999999 4.68475 17.3145 3.7502499999999994C59.36525 96.96925 70.30275 92.7115 78.68 84H49c-2.89975 0-5.25-2.35025-5.25-5.25V49.07z"></path></g></g></svg>