<svg version="1.1" xmlns="http://www.w3.org/2000/svg" xmlns:xlink="http://www.w3.org/1999/xlink" width="3300" height="2200" viewBox="0 0 3300 2200">
    <g id="Notes">
        <rect height="2200" id="artboard" style="fill:white;opacity:1" width="3300" x="0" y="0"></rect>
        <line style="fill:none;stroke:black;opacity:1;stroke-width:0.5;" x1="263" x2="3036" y1="292" y2="292"></line>
        <text style="stroke:none;fill:black;font-family:sans-serif;font-size:13;font-weight:bold;" transform="matrix(1 0 0 1 263 322)">Weight/Scale Variations</text>
        <text style="stroke:none;fill:black;font-family:sans-serif;font-size:13;text-anchor:middle;" transform="matrix(1 0 0 1 559.711 322)">Ultralight</text>
        <text style="stroke:none;fill:black;font-family:sans-serif;font-size:13;text-anchor:middle;" transform="matrix(1 0 0 1 856.422 322)">Thin</text>
        <text style="stroke:none;fill:black;font-family:sans-serif;font-size:13;text-anchor:middle;" transform="matrix(1 0 0 1 1153.13 322)">Light</text>
        <text style="stroke:none;fill:black;font-family:sans-serif;font-size:13;text-anchor:middle;" transform="matrix(1 0 0 1 1449.84 322)">Regular</text>
        <text style="stroke:none;fill:black;font-family:sans-serif;font-size:13;text-anchor:middle;" transform="matrix(1 0 0 1 1746.56 322)">Medium</text>
        <text style="stroke:none;fill:black;font-family:sans-serif;font-size:13;text-anchor:middle;" transform="matrix(1 0 0 1 2043.27 322)">Semibold</text>
        <text style="stroke:none;fill:black;font-family:sans-serif;font-size:13;text-anchor:middle;" transform="matrix(1 0 0 1 2339.98 322)">Bold</text>
        <text style="stroke:none;fill:black;font-family:sans-serif;font-size:13;text-anchor:middle;" transform="matrix(1 0 0 1 2636.69 322)">Heavy</text>
        <text style="stroke:none;fill:black;font-family:sans-serif;font-size:13;text-anchor:middle;" transform="matrix(1 0 0 1 2933.4 322)">Black</text>
        <line style="fill:none;stroke:black;opacity:1;stroke-width:0.5;" x1="263" x2="3036" y1="1903" y2="1903"></line>
        <g transform="matrix(1 0 0 1 263 1933)">
            <path d="M9.24805 0.830078Q10.8691 0.830078 12.2949 0.214844Q13.7207-0.400391 14.8096-1.49414Q15.8984-2.58789 16.5186-4.01367Q17.1387-5.43945 17.1387-7.05078Q17.1387-8.66211 16.5186-10.0879Q15.8984-11.5137 14.8047-12.6074Q13.7109-13.7012 12.2852-14.3164Q10.8594-14.9316 9.23828-14.9316Q7.62695-14.9316 6.20117-14.3164Q4.77539-13.7012 3.69141-12.6074Q2.60742-11.5137 1.9873-10.0879Q1.36719-8.66211 1.36719-7.05078Q1.36719-5.43945 1.9873-4.01367Q2.60742-2.58789 3.69629-1.49414Q4.78516-0.400391 6.21094 0.214844Q7.63672 0.830078 9.24805 0.830078ZM9.24805-0.654297Q7.91992-0.654297 6.7627-1.14746Q5.60547-1.64062 4.73145-2.51953Q3.85742-3.39844 3.36426-4.56055Q2.87109-5.72266 2.87109-7.05078Q2.87109-8.37891 3.35938-9.54102Q3.84766-10.7031 4.72168-11.582Q5.5957-12.4609 6.75293-12.9541Q7.91016-13.4473 9.23828-13.4473Q10.5762-13.4473 11.7334-12.9541Q12.8906-12.4609 13.7695-11.582Q14.6484-10.7031 15.1465-9.54102Q15.6445-8.37891 15.6445-7.05078Q15.6445-5.72266 15.1514-4.56055Q14.6582-3.39844 13.7842-2.51953Q12.9102-1.64062 11.748-1.14746Q10.5859-0.654297 9.24805-0.654297ZM5.83984-7.04102Q5.83984-6.71875 6.04492-6.51855Q6.25-6.31836 6.5918-6.31836L8.50586-6.31836L8.50586-4.39453Q8.50586-4.0625 8.70605-3.85742Q8.90625-3.65234 9.22852-3.65234Q9.56055-3.65234 9.76562-3.85742Q9.9707-4.0625 9.9707-4.39453L9.9707-6.31836L11.8945-6.31836Q12.2266-6.31836 12.4316-6.51855Q12.6367-6.71875 12.6367-7.04102Q12.6367-7.37305 12.4316-7.57812Q12.2266-7.7832 11.8945-7.7832L9.9707-7.7832L9.9707-9.69727Q9.9707-10.0391 9.76562-10.2441Q9.56055-10.4492 9.22852-10.4492Q8.90625-10.4492 8.70605-10.2441Q8.50586-10.0391 8.50586-9.69727L8.50586-7.7832L6.5918-7.7832Q6.25-7.7832 6.04492-7.57812Q5.83984-7.37305 5.83984-7.04102Z"></path>
        </g>
        <g transform="matrix(1 0 0 1 281.867 1933)">
            <path d="M11.709 2.91016Q13.75 2.91016 15.5518 2.12891Q17.3535 1.34766 18.7305-0.0292969Q20.1074-1.40625 20.8887-3.20801Q21.6699-5.00977 21.6699-7.05078Q21.6699-9.0918 20.8887-10.8936Q20.1074-12.6953 18.7305-14.0723Q17.3535-15.4492 15.5469-16.2305Q13.7402-17.0117 11.6992-17.0117Q9.6582-17.0117 7.85645-16.2305Q6.05469-15.4492 4.68262-14.0723Q3.31055-12.6953 2.5293-10.8936Q1.74805-9.0918 1.74805-7.05078Q1.74805-5.00977 2.5293-3.20801Q3.31055-1.40625 4.6875-0.0292969Q6.06445 1.34766 7.86621 2.12891Q9.66797 2.91016 11.709 2.91016ZM11.709 1.25Q9.98047 1.25 8.47656 0.605469Q6.97266-0.0390625 5.83496-1.17676Q4.69727-2.31445 4.05762-3.81836Q3.41797-5.32227 3.41797-7.05078Q3.41797-8.7793 4.05762-10.2832Q4.69727-11.7871 5.83008-12.9297Q6.96289-14.0723 8.4668-14.7119Q9.9707-15.3516 11.6992-15.3516Q13.4277-15.3516 14.9316-14.7119Q16.4355-14.0723 17.5781-12.9297Q18.7207-11.7871 19.3652-10.2832Q20.0098-8.7793 20.0098-7.05078Q20.0098-5.32227 19.3701-3.81836Q18.7305-2.31445 17.5928-1.17676Q16.4551-0.0390625 14.9463 0.605469Q13.4375 1.25 11.709 1.25ZM7.39258-7.04102Q7.39258-6.68945 7.62695-6.46484Q7.86133-6.24023 8.23242-6.24023L10.8789-6.24023L10.8789-3.57422Q10.8789-3.21289 11.1035-2.9834Q11.3281-2.75391 11.6797-2.75391Q12.0508-2.75391 12.2852-2.9834Q12.5195-3.21289 12.5195-3.57422L12.5195-6.24023L15.1758-6.24023Q15.5371-6.24023 15.7715-6.46484Q16.0059-6.68945 16.0059-7.04102Q16.0059-7.41211 15.7715-7.6416Q15.5371-7.87109 15.1758-7.87109L12.5195-7.87109L12.5195-10.5176Q12.5195-10.8984 12.2852-11.1279Q12.0508-11.3574 11.6797-11.3574Q11.3281-11.3574 11.1035-11.1279Q10.8789-10.8984 10.8789-10.5176L10.8789-7.87109L8.23242-7.87109Q7.85156-7.87109 7.62207-7.6416Q7.39258-7.41211 7.39258-7.04102Z"></path>
        </g>
        <g transform="matrix(1 0 0 1 305.646 1933)">
            <path d="M14.9707 5.66406Q17.0605 5.66406 18.96 5.01465Q20.8594 4.36523 22.4512 3.19336Q24.043 2.02148 25.2197 0.429688Q26.3965-1.16211 27.0459-3.06641Q27.6953-4.9707 27.6953-7.05078Q27.6953-9.14062 27.0459-11.04Q26.3965-12.9395 25.2197-14.5312Q24.043-16.123 22.4512-17.2998Q20.8594-18.4766 18.9551-19.126Q17.0508-19.7754 14.9609-19.7754Q12.8711-19.7754 10.9717-19.126Q9.07227-18.4766 7.48535-17.2998Q5.89844-16.123 4.72168-14.5312Q3.54492-12.9395 2.90039-11.04Q2.25586-9.14062 2.25586-7.05078Q2.25586-4.9707 2.90527-3.06641Q3.55469-1.16211 4.72656 0.429688Q5.89844 2.02148 7.49023 3.19336Q9.08203 4.36523 10.9814 5.01465Q12.8809 5.66406 14.9707 5.66406ZM14.9707 3.84766Q13.1641 3.84766 11.5283 3.2959Q9.89258 2.74414 8.53516 1.74805Q7.17773 0.751953 6.17676-0.610352Q5.17578-1.97266 4.62891-3.6084Q4.08203-5.24414 4.08203-7.05078Q4.08203-8.86719 4.62891-10.5029Q5.17578-12.1387 6.17188-13.501Q7.16797-14.8633 8.52539-15.8594Q9.88281-16.8555 11.5186-17.4023Q13.1543-17.9492 14.9609-17.9492Q16.7773-17.9492 18.4131-17.4023Q20.0488-16.8555 21.4111-15.8594Q22.7734-14.8633 23.7695-13.501Q24.7656-12.1387 25.3174-10.5029Q25.8691-8.86719 25.8691-7.05078Q25.8789-5.24414 25.332-3.6084Q24.7852-1.97266 23.7842-0.610352Q22.7832 0.751953 21.4209 1.74805Q20.0586 2.74414 18.4229 3.2959Q16.7871 3.84766 14.9707 3.84766ZM9.45312-7.04102Q9.45312-6.66016 9.71191-6.41113Q9.9707-6.16211 10.3711-6.16211L14.0625-6.16211L14.0625-2.46094Q14.0625-2.06055 14.3115-1.80664Q14.5605-1.55273 14.9414-1.55273Q15.3516-1.55273 15.6055-1.80664Q15.8594-2.06055 15.8594-2.46094L15.8594-6.16211L19.5605-6.16211Q19.9609-6.16211 20.2148-6.41113Q20.4688-6.66016 20.4688-7.04102Q20.4688-7.45117 20.2148-7.70508Q19.9609-7.95898 19.5605-7.95898L15.8594-7.95898L15.8594-11.6504Q15.8594-12.0605 15.6055-12.3145Q15.3516-12.5684 14.9414-12.5684Q14.5605-12.5684 14.3115-12.3096Q14.0625-12.0508 14.0625-11.6504L14.0625-7.95898L10.3711-7.95898Q9.96094-7.95898 9.70703-7.70508Q9.45312-7.45117 9.45312-7.04102Z"></path>
        </g>
        <text style="stroke:none;fill:black;font-family:sans-serif;font-size:13;font-weight:bold;" transform="matrix(1 0 0 1 263 1953)">Design Variations</text>
        <text style="stroke:none;fill:black;font-family:sans-serif;font-size:13;" transform="matrix(1 0 0 1 263 1971)">Symbols are supported in up to nine weights and three scales.</text>
        <text style="stroke:none;fill:black;font-family:sans-serif;font-size:13;" transform="matrix(1 0 0 1 263 1989)">For optimal layout with text and other symbols, vertically align</text>
        <text style="stroke:none;fill:black;font-family:sans-serif;font-size:13;" transform="matrix(1 0 0 1 263 2007)">symbols with the adjacent text.</text>
        <line style="fill:none;stroke:#00AEEF;stroke-width:0.5;opacity:1.0;" x1="776" x2="776" y1="1919" y2="1933"></line>
        <g transform="matrix(1 0 0 1 776 1933)">
            <path d="M3.31055 0.15625Q3.70117 0.15625 3.91602-0.00976562Q4.13086-0.175781 4.26758-0.585938L5.52734-4.0332L11.2891-4.0332L12.5488-0.585938Q12.6855-0.175781 12.9004-0.00976562Q13.1152 0.15625 13.4961 0.15625Q13.8867 0.15625 14.1162-0.0585938Q14.3457-0.273438 14.3457-0.644531Q14.3457-0.869141 14.2383-1.17188L9.6582-13.3691Q9.48242-13.8184 9.17969-14.043Q8.87695-14.2676 8.4082-14.2676Q7.5-14.2676 7.17773-13.3789L2.59766-1.16211Q2.49023-0.859375 2.49023-0.634766Q2.49023-0.263672 2.70996-0.0537109Q2.92969 0.15625 3.31055 0.15625ZM6.00586-5.51758L8.37891-12.0898L8.42773-12.0898L10.8008-5.51758Z"></path>
        </g>
        <line style="fill:none;stroke:#00AEEF;stroke-width:0.5;opacity:1.0;" x1="793.197" x2="793.197" y1="1919" y2="1933"></line>
        <text style="stroke:none;fill:black;font-family:sans-serif;font-size:13;font-weight:bold;" transform="matrix(1 0 0 1 776 1953)">Margins</text>
        <text style="stroke:none;fill:black;font-family:sans-serif;font-size:13;" transform="matrix(1 0 0 1 776 1971)">Leading and trailing margins on the left and right side of each symbol</text>
        <text style="stroke:none;fill:black;font-family:sans-serif;font-size:13;" transform="matrix(1 0 0 1 776 1989)">can be adjusted by modifying the x-location of the margin guidelines.</text>
        <text style="stroke:none;fill:black;font-family:sans-serif;font-size:13;" transform="matrix(1 0 0 1 776 2007)">Modifications are automatically applied proportionally to all</text>
        <text style="stroke:none;fill:black;font-family:sans-serif;font-size:13;" transform="matrix(1 0 0 1 776 2025)">scales and weights.</text>
        <g transform="matrix(1 0 0 1 1289 1933)">
            <path d="M2.8418 1.86523L4.54102 3.57422Q5.18555 4.22852 5.90332 4.17969Q6.62109 4.13086 7.31445 3.35938L18.0078-8.42773L17.041-9.4043L6.42578 2.27539Q6.16211 2.57812 5.89355 2.61719Q5.625 2.65625 5.27344 2.30469L4.10156 1.14258Q3.75 0.791016 3.79395 0.522461Q3.83789 0.253906 4.14062-0.0195312L15.6152-10.8203L14.6387-11.7871L3.04688-0.898438Q2.30469-0.214844 2.25098 0.498047Q2.19727 1.21094 2.8418 1.86523ZM9.25781-16.3281Q8.94531-16.0254 8.90625-15.6348Q8.86719-15.2441 9.04297-14.9512Q9.21875-14.6777 9.55566-14.541Q9.89258-14.4043 10.3809-14.5215Q11.4746-14.7754 12.5977-14.7314Q13.7207-14.6875 14.7949-13.9844L14.209-12.5293Q13.9551-11.9043 14.0674-11.4404Q14.1797-10.9766 14.5801-10.5664L16.875-8.25195Q17.2363-7.88086 17.5781-7.82227Q17.9199-7.76367 18.3398-7.8418L19.4043-8.03711L20.0684-7.36328L20.0293-6.80664Q20-6.43555 20.1221-6.12305Q20.2441-5.81055 20.6055-5.44922L21.3672-4.70703Q21.7285-4.3457 22.1533-4.33105Q22.5781-4.31641 22.9297-4.66797L25.8398-7.58789Q26.1914-7.93945 26.1816-8.35449Q26.1719-8.76953 25.8105-9.13086L25.0391-9.89258Q24.6875-10.2539 24.3799-10.3857Q24.0723-10.5176 23.7109-10.4883L23.1348-10.4395L22.4902-11.0742L22.7344-12.1973Q22.832-12.6172 22.6953-12.9834Q22.5586-13.3496 22.1191-13.7891L19.9219-15.9766Q18.6719-17.2168 17.2607-17.8369Q15.8496-18.457 14.4189-18.4814Q12.9883-18.5059 11.665-17.959Q10.3418-17.4121 9.25781-16.3281ZM10.752-15.957Q11.6602-16.6211 12.7002-16.9043Q13.7402-17.1875 14.8047-17.085Q15.8691-16.9824 16.8701-16.5137Q17.8711-16.0449 18.7012-15.2051L21.1328-12.793Q21.3086-12.6172 21.3525-12.4512Q21.3965-12.2852 21.3379-12.0312L21.0156-10.5469L22.5195-9.0625L23.5059-9.12109Q23.6914-9.13086 23.7891-9.09668Q23.8867-9.0625 24.0332-8.91602L24.6094-8.33984L22.168-5.89844L21.5918-6.47461Q21.4453-6.62109 21.4062-6.71875Q21.3672-6.81641 21.377-7.01172L21.4453-7.98828L19.9512-9.47266L18.4277-9.21875Q18.1836-9.16992 18.042-9.2041Q17.9004-9.23828 17.7148-9.41406L15.7129-11.416Q15.5176-11.5918 15.4932-11.7529Q15.4688-11.9141 15.5859-12.1875L16.4648-14.2773Q15.293-15.3711 13.8281-15.791Q12.3633-16.2109 10.8398-15.7617Q10.7227-15.7324 10.6885-15.8057Q10.6543-15.8789 10.752-15.957Z"></path>
        </g>
        <text style="stroke:none;fill:black;font-family:sans-serif;font-size:13;font-weight:bold;" transform="matrix(1 0 0 1 1289 1953)">Exporting</text>
        <text style="stroke:none;fill:black;font-family:sans-serif;font-size:13;" transform="matrix(1 0 0 1 1289 1971)">Symbols should be outlined when exporting to ensure the</text>
        <text style="stroke:none;fill:black;font-family:sans-serif;font-size:13;" transform="matrix(1 0 0 1 1289 1989)">design is preserved when submitting to Xcode.</text>
        <text id="template-version" style="stroke:none;fill:black;font-family:sans-serif;font-size:13;text-anchor:end;" transform="matrix(1 0 0 1 3036 1933)">Template v.3.0</text>
        <text style="stroke:none;fill:black;font-family:sans-serif;font-size:13;text-anchor:end;" transform="matrix(1 0 0 1 3036 1951)">Requires Xcode 13 or greater</text>
        <text id="descriptive-name" style="stroke:none;fill:black;font-family:sans-serif;font-size:13;text-anchor:end;" transform="matrix(1 0 0 1 3036 1969)">Generated from custom.pencil.circle</text>
        <text style="stroke:none;fill:black;font-family:sans-serif;font-size:13;text-anchor:end;" transform="matrix(1 0 0 1 3036 1987)">Typeset at 100 points</text>
        <text style="stroke:none;fill:black;font-family:sans-serif;font-size:13;" transform="matrix(1 0 0 1 263 726)">Small</text>
        <text style="stroke:none;fill:black;font-family:sans-serif;font-size:13;" transform="matrix(1 0 0 1 263 1156)">Medium</text>
        <text style="stroke:none;fill:black;font-family:sans-serif;font-size:13;" transform="matrix(1 0 0 1 263 1586)">Large</text>
    </g>
    <g id="Guides">
        <g id="H-reference" style="fill:#27AAE1;stroke:none;" transform="matrix(1 0 0 1 339 696)">
            <path d="M0.976562 0L3.66211 0L29.3457-67.1387L30.0293-67.1387L30.0293-70.459L28.125-70.459ZM11.6699-24.4629L46.9727-24.4629L46.2402-26.709L12.4512-26.709ZM55.127 0L57.7637 0L30.6152-70.459L29.4434-70.459L29.4434-67.1387Z"></path>
        </g>
        <line id="Baseline-S" style="fill:none;stroke:#27AAE1;opacity:1;stroke-width:0.5;" x1="263" x2="3036" y1="696" y2="696"></line>
        <line id="Capline-S" style="fill:none;stroke:#27AAE1;opacity:1;stroke-width:0.5;" x1="263" x2="3036" y1="625.541" y2="625.541"></line>
        <g id="H-reference" style="fill:#27AAE1;stroke:none;" transform="matrix(1 0 0 1 339 1126)">
            <path d="M0.976562 0L3.66211 0L29.3457-67.1387L30.0293-67.1387L30.0293-70.459L28.125-70.459ZM11.6699-24.4629L46.9727-24.4629L46.2402-26.709L12.4512-26.709ZM55.127 0L57.7637 0L30.6152-70.459L29.4434-70.459L29.4434-67.1387Z"></path>
        </g>
        <line id="Baseline-M" style="fill:none;stroke:#27AAE1;opacity:1;stroke-width:0.5;" x1="263" x2="3036" y1="1126" y2="1126"></line>
        <line id="Capline-M" style="fill:none;stroke:#27AAE1;opacity:1;stroke-width:0.5;" x1="263" x2="3036" y1="1055.54" y2="1055.54"></line>
        <g id="H-reference" style="fill:#27AAE1;stroke:none;" transform="matrix(1 0 0 1 339 1556)">
            <path d="M0.976562 0L3.66211 0L29.3457-67.1387L30.0293-67.1387L30.0293-70.459L28.125-70.459ZM11.6699-24.4629L46.9727-24.4629L46.2402-26.709L12.4512-26.709ZM55.127 0L57.7637 0L30.6152-70.459L29.4434-70.459L29.4434-67.1387Z"></path>
        </g>
        <line id="Baseline-L" style="fill:none;stroke:#27AAE1;opacity:1;stroke-width:0.5;" x1="263" x2="3036" y1="1556" y2="1556"></line>
        <line id="Capline-L" style="fill:none;stroke:#27AAE1;opacity:1;stroke-width:0.5;" x1="263" x2="3036" y1="1485.54" y2="1485.54"></line>
        <line id="left-margin-Ultralight-S" style="fill:none;stroke:#00AEEF;stroke-width:0.5;opacity:1.0;" x1="505.4103970336914" x2="505.4103970336914" y1="600.784" y2="720.121"></line>
        <line id="right-margin-Ultralight-S" style="fill:none;stroke:#00AEEF;stroke-width:0.5;opacity:1.0;" x1="614.0116000366211" x2="614.0116000366211" y1="600.784" y2="720.121"></line>
        <line id="left-margin-Regular-S" style="fill:none;stroke:#00AEEF;stroke-width:0.5;opacity:1.0;" x1="1391.0174084091186" x2="1391.0174084091186" y1="600.784" y2="720.121"></line>
        <line id="right-margin-Regular-S" style="fill:none;stroke:#00AEEF;stroke-width:0.5;opacity:1.0;" x1="1508.6725329971314" x2="1508.6725329971314" y1="600.784" y2="720.121"></line>
        <line id="left-margin-Black-S" style="fill:none;stroke:#00AEEF;stroke-width:0.5;opacity:1.0;" x1="2872.1441764831543" x2="2872.1441764831543" y1="600.784" y2="720.121"></line>
        <line id="right-margin-Black-S" style="fill:none;stroke:#00AEEF;stroke-width:0.5;opacity:1.0;" x1="2994.6558723449707" x2="2994.6558723449707" y1="600.784" y2="720.121"></line>
    </g>
<g id="Symbols"><g id="Ultralight-S" transform="matrix(1,0,0,1,504.96099853515625,606.0205078125)"><path d="M98.40326999999999 88.1475c0.30222000000000004 0.5234099999999999 0.12264 1.19136-0.40076999999999996 1.4935800000000001C97.82948999999999 89.74182 97.64115 89.78999999999999 97.455 89.78999999999999c-0.37887 0-0.7467900000000001-0.19490999999999997-0.95046-0.5475-0.04599-0.08322-4.84647-8.2125-12.7677-8.2125-7.1175 0-10.60179 2.4725099999999998-10.60179 2.4725099999999998S64.83276 76.64999999999999 54.75 76.64999999999999s-17.68206 6.33786-17.68206 6.33786S32.25651 81.03 27.42975 81.03c-9.25713 0-14.40144 8.15775-14.45181 8.23878-0.31973999999999997 0.51246-0.99207 0.67233-1.5067199999999998 0.35697-0.5146499999999999-0.31754999999999994-0.6767099999999999-0.98988-0.36135-1.5045300000000001C11.344199999999999 87.74234999999999 16.924319999999998 78.84 27.42975 78.84c3.9179099999999996 0 7.80297 1.18041 9.24618 1.67097C38.57466 79.11813000000001 45.60894 74.46 54.75 74.46c9.33159 0 16.55202 4.86618 18.610619999999997 6.412319999999999C74.77098000000001 80.20218 78.31002000000001 78.84 83.73903 78.84 92.93922 78.84 98.18427 87.76862999999999 98.40326999999999 88.1475z"></path><path d="M53.35059 62.06679l-2.8251 1.2461099999999998c-0.52998-1.36875-4.60119-13.1181-19.29171-17.89668-0.46427999999999997-0.15111000000000002-0.67014-0.6044400000000001-0.52998-1.03806 0.13577999999999998-0.41829 0.5825400000000001-0.67452 0.9964500000000001-0.5431199999999999C47.809889999999996 48.955259999999996 52.367279999999994 59.835179999999994 53.35059 62.06679z"></path><path d="M79.935 31.001640000000002c0.41609999999999997 0.00657 0.7467900000000001 0.34821 0.74022 0.7643099999999999-0.00657 0.40515-0.33726 0.73146-0.74022 0.74022-4.36467 0.0876-21.98322 3.27843-25.995299999999997 24.37689-1.17822 6.191129999999999 2.4747 18.0237 2.4747 18.0237l-3.8215500000000002 0.7840199999999999c-2.5710599999999997-5.55165-2.8491899999999997-15.41322-1.8636899999999998-19.27419C56.681580000000004 33.07557 75.26592000000001 30.92718 79.935 31.001640000000002z"></path><path d="M37.86291 33.46758c9.04689 5.24724 8.86512 15.05625 8.03073 18.39162l-2.12649-0.52998c0.57159-2.8404299999999996 0.86943-11.76468-7.00362-15.96729C26.34351 29.80152 17.52 35.02248 17.52 36.04083c0 18.5712 14.78907 20.26407 22.80228 18.72669 0.6022500000000001-0.11606999999999999 1.16289 0.28908 1.2701999999999998 0.88695 0.10731 0.5934900000000001-0.29127000000000003 1.16289-0.88476 1.2701999999999998-1.7739 0.31536-11.14053 2.08488-18.66537-3.92886C17.49591 49.36041 15.33 43.556909999999995 15.33 36.03207c0-1.11909 0.88038-2.22066 2.54697-3.17988C21.69195 30.65343 30.16068 29.00217 37.86291 33.46758z"></path><path d="M76.42662 17.52C88.30955999999999 17.52 96.36 27.41004 96.36 30.69285 96.36 34.23189 86.85759 48.18 74.62863 48.18c-7.61025 0-10.25796-2.22504-10.53609-2.47689-0.44457-0.40953-0.47742-1.10157-0.06788999999999999-1.54833 0.40734-0.44238 1.09062-0.47523 1.5351899999999998-0.07884C65.6343 44.13726 67.95351 45.99 74.62863 45.99 85.5852 45.99 94.17 33.068999999999996 94.17 30.69285 94.17 28.56855 87.08973 19.71 76.42662 19.71c-4.37781 0-10.82298 1.8352199999999999-14.587589999999999 7.01019-2.9718299999999997 4.08435-3.49962 9.46737-1.52643 15.56871l-2.08269 0.67452c-2.77692-8.5848-0.5321699999999999-14.27223 1.8396-17.53095C64.31591999999999 19.591739999999998 71.53635 17.52 76.42662 17.52z"></path></g><g id="Regular-S" transform="matrix(1,0,0,1,1392.564970703125,603.4905078125)"><path d="M104.91011 89.16347999999999c1.17245 1.59131 0.8359300000000001 3.83239-0.7553799999999999 5.00663C103.5157 94.64267 102.77106 94.87 102.03358 94.87c-1.09727 0-2.18201-0.50299-2.88369-1.45348C98.98521 93.19993000000001 94.74828000000001 87.71000000000001 87.65809 87.71000000000001c-7.88674 0-12.123669999999999 2.7476499999999997-12.123669999999999 2.7476499999999997S67.65126 82.34 57.28 82.34s-18.08974 7.25129-18.08974 7.25129S34.01 87.71000000000001 28.650740000000003 87.71000000000001c-8.516820000000001 0-13.12965 5.575850000000001-13.32118 5.81213-1.2368899999999998 1.52866-3.4851300000000003 1.78284-5.02453 0.55669-1.53582-1.22794-1.8043200000000001-3.4547-0.58891-4.9994700000000005C9.98999 88.72851 16.5575 80.55 28.650740000000003 80.55c3.52988 0 6.9648900000000005 0.67125 8.97864 1.1563400000000001C40.71713 79.55118 48.11162 75.18 57.28 75.18c9.26325 0 16.44294 4.52512 19.62019 6.9452C79.09831 81.42710000000001 82.8233 80.55 87.65809 80.55 98.42852 80.55 104.65056 88.81264 104.91011 89.16347999999999z"></path><path d="M57.011500000000005 63.743689999999994l-6.55498 2.9033800000000003c-0.47435000000000005-1.07758-3.7285700000000004-13.25853-18.437-18.97758-1.15276-0.4475-1.9027699999999999-1.8616000000000001-1.4391600000000002-3.12176 0.44034-1.1939300000000002 1.74167-1.8723400000000001 2.9356-1.50002C42.82217 45.9493 51.84198 51.761430000000004 57.011500000000005 63.743689999999994z"></path><path d="M80.26718 32.22c1.18677 0 2.1139900000000003 0.7464299999999999 2.07103 1.9332000000000003-0.03938 1.12591-0.79476 2.12115-2.04418 2.3628C68.33683 38.81436 57.28 46.34489 57.28 62.07362c0 5.52931 4.39087 15.442330000000002 4.39087 15.442330000000002l-7.3389999999999995 3.51019C54.07769 80.30477 50.120000000000005 71.21336 50.120000000000005 61.93758 50.120000000000005 45.94393 65.60529000000001 32.22 80.26718 32.22z"></path><path d="M40.00113 30.992060000000002c10.87067 6.30259 10.63439 18.118380000000002 9.628409999999999 22.13872l-6.9469899999999996-1.74167c0.025060000000000002-0.09308 2.07998-9.359910000000001-6.27216-14.20365-7.12241-4.12774-14.71022-1.8437000000000001-16.709650000000003-0.47077C20.187620000000003 57.04193 36.870419999999996 57.28 37.59 57.28c1.9761600000000001 0 3.58 1.6038400000000002 3.58 3.58s-1.6038400000000002 3.58-3.58 3.58c-1.32281 0-8.253689999999999-0.24702000000000002-14.763919999999999-5.13014C18.12912 55.78535 12.530000000000001 48.84731 12.530000000000001 35.8c0-1.4642199999999999 0.6784100000000001-3.60148 3.9075699999999998-5.463080000000001C20.95911 27.732470000000003 30.967000000000002 25.75452 40.00113 30.992060000000002z"></path><path d="M78.76 17.9c13.2102 0 23.27 10.73642 23.27 16.11 0 4.74708-7.85452 19.69-21.48 19.69-5.4058 0-9.3438-1.8741299999999999-9.77519-2.08893-1.77031-0.87889-2.49526-3.0251-1.61637-4.7972 0.87531-1.76494 3.0072-2.4934700000000003 4.78109-1.62711C74.02544999999999 45.22972 76.83574999999999 46.54 80.55 46.54c8.6815 0 13.75615-10.142140000000001 14.2842-12.41723C94.00185 31.96045 87.90332 25.060000000000002 78.76 25.060000000000002c-4.37476 0-8.939259999999999 2.21602-11.90708 5.7817-2.06208 2.4755700000000003-4.27989 6.737559999999999-3.13071 12.973920000000001l-6.75009 2.17485c-1.5752-7.64151 0.07697-14.56702 4.37655-19.73117C65.64287999999999 21.1041 72.31421 17.9 78.76 17.9z"></path></g><g id="Black-S" transform="matrix(1,0,0,1,2870.4000244140625,597.7705078125)"><path d="M112.38324999999999 92.09375c2.2960000000000003 3.1115 1.6345 7.4935-1.4769999999999999 9.7895-1.218 0.8995-2.6355 1.344-4.045999999999999 1.365-2.1927499999999998 0.03325-4.36625-0.9537500000000001-5.7435-2.84025C100.80525 99.981 97.81275 96.25 92.69924999999999 96.25c-7.50225 0-12.59825 3.4632500000000004-12.59825 3.4632500000000004S73.36 91 63 91s-16.9085 7.458499999999999-16.9085 7.458499999999999S39.90175 96.25 35.0105 96.25c-6.54675 0-9.76675 3.8657500000000002-10.32325 4.408250000000001-2.36425 2.2977499999999997-6.15125 4.0215-9.7965 1.13575-3.031-2.39925-3.5332500000000002-6.83025-1.14275-9.87C14.525000000000002 90.93350000000001 21.735 82.25 35.0105 82.25c3.01525 0 5.9167499999999995 0.441 8.06575 0.88375C46.96125 80.64175 54.152 77 63 77c8.78675 0 15.862 3.7485 19.83275 6.461C85.26350000000001 82.83275 88.61825 82.25 92.69924999999999 82.25 104.769 82.25 111.6395 91.08575 112.38324999999999 92.09375z"></path><path d="M64.25475 63.376250000000006l-9.568999999999999 4.3854999999999995c-2.03525-5.649-5.026-13.21775-17.0275-18.7145-1.7972499999999998-0.8242499999999999-2.653-2.863-1.883-4.67425 0.70875-1.6624999999999999 2.5322500000000003-2.5095 4.228-2.0387500000000003C57.532999999999994 47.7085 63.071749999999994 60.795 64.25475 63.376250000000006z"></path><path d="M86.338 33.26925c1.7255 0.061250000000000006 2.99425 1.526 2.9085 3.2165-0.07875 1.56975-1.561 2.919-2.8577500000000002 2.905-5.9535-0.063-21.61775 6.75675-21.61775 24.239250000000002 0 8.568 5.404 14.52675 5.404 14.52675l-12.902750000000001 1.3807500000000001C56.441 78.10074999999999 54.25 69.0655 54.25 63.42 54.25 53.8895 64.953 32.508 86.338 33.26925z"></path><path d="M46.98575 30.535750000000004c11.56225 6.70425 11.306750000000001 19.29725 10.23225 23.583000000000002l-10.185-2.5532500000000002c0.01925-0.077 1.7325-7.861-5.313-11.94725-5.29725-3.0695-11.242-2.01775-13.677999999999999-0.9485000000000001C28.490000000000002 49.5635 32.82825 56 39.83525 56c2.89975 0 5.25 2.35025 5.25 5.25s-2.35025 5.25-5.25 5.25c-4.88425 0-10.15525-1.75-14.349999999999998-5.929C20.8285 55.931749999999994 17.5 48.30175 17.5 36.75c0-1.5505 0.6107499999999999-4.50275 4.697-6.8565000000000005C28.098000000000003 26.49325 38.50875 25.62 46.98575 30.535750000000004z"></path><path d="M84 17.5c14.153999999999998 0 24.5 11.50975 24.5 17.5 0 5.4845-8.3195 22.75-22.75 22.75-2.89975 0-6.65525-0.6265-7.071750000000001-0.69825-2.8577500000000002-0.4882500000000001-4.7775-3.1990000000000003-4.291-6.05675 0.4882500000000001-2.8577500000000002 3.2025-4.774 6.05675-4.2945C81.34175 46.85275 84.0455 47.25 85.75 47.25c6.70075 0 11.165-8.9915 12.097750000000001-11.9105C96.58075 33.32175 91.48649999999999 28 84 28c-4.04425 0-8.356250000000001 2.04225-10.98825 5.2045-2.4219999999999997 2.9085-3.2672499999999998 6.45575-2.5147500000000003 10.543750000000001l-10.17975 3.3634999999999997c-1.57325-7.8645 0.23975000000000002-15.361500000000001 4.6235-20.6255C69.55725 20.944 76.86 17.5 84 17.5z"></path></g></g></svg>