<svg version="1.1" xmlns="http://www.w3.org/2000/svg" xmlns:xlink="http://www.w3.org/1999/xlink" width="3300" height="2200" viewBox="0 0 3300 2200">
    <g id="Notes">
        <rect height="2200" id="artboard" style="fill:white;opacity:1" width="3300" x="0" y="0"></rect>
        <line style="fill:none;stroke:black;opacity:1;stroke-width:0.5;" x1="263" x2="3036" y1="292" y2="292"></line>
        <text style="stroke:none;fill:black;font-family:sans-serif;font-size:13;font-weight:bold;" transform="matrix(1 0 0 1 263 322)">Weight/Scale Variations</text>
        <text style="stroke:none;fill:black;font-family:sans-serif;font-size:13;text-anchor:middle;" transform="matrix(1 0 0 1 559.711 322)">Ultralight</text>
        <text style="stroke:none;fill:black;font-family:sans-serif;font-size:13;text-anchor:middle;" transform="matrix(1 0 0 1 856.422 322)">Thin</text>
        <text style="stroke:none;fill:black;font-family:sans-serif;font-size:13;text-anchor:middle;" transform="matrix(1 0 0 1 1153.13 322)">Light</text>
        <text style="stroke:none;fill:black;font-family:sans-serif;font-size:13;text-anchor:middle;" transform="matrix(1 0 0 1 1449.84 322)">Regular</text>
        <text style="stroke:none;fill:black;font-family:sans-serif;font-size:13;text-anchor:middle;" transform="matrix(1 0 0 1 1746.56 322)">Medium</text>
        <text style="stroke:none;fill:black;font-family:sans-serif;font-size:13;text-anchor:middle;" transform="matrix(1 0 0 1 2043.27 322)">Semibold</text>
        <text style="stroke:none;fill:black;font-family:sans-serif;font-size:13;text-anchor:middle;" transform="matrix(1 0 0 1 2339.98 322)">Bold</text>
        <text style="stroke:none;fill:black;font-family:sans-serif;font-size:13;text-anchor:middle;" transform="matrix(1 0 0 1 2636.69 322)">Heavy</text>
        <text style="stroke:none;fill:black;font-family:sans-serif;font-size:13;text-anchor:middle;" transform="matrix(1 0 0 1 2933.4 322)">Black</text>
        <line style="fill:none;stroke:black;opacity:1;stroke-width:0.5;" x1="263" x2="3036" y1="1903" y2="1903"></line>
        <g transform="matrix(1 0 0 1 263 1933)">
            <path d="M9.24805 0.830078Q10.8691 0.830078 12.2949 0.214844Q13.7207-0.400391 14.8096-1.49414Q15.8984-2.58789 16.5186-4.01367Q17.1387-5.43945 17.1387-7.05078Q17.1387-8.66211 16.5186-10.0879Q15.8984-11.5137 14.8047-12.6074Q13.7109-13.7012 12.2852-14.3164Q10.8594-14.9316 9.23828-14.9316Q7.62695-14.9316 6.20117-14.3164Q4.77539-13.7012 3.69141-12.6074Q2.60742-11.5137 1.9873-10.0879Q1.36719-8.66211 1.36719-7.05078Q1.36719-5.43945 1.9873-4.01367Q2.60742-2.58789 3.69629-1.49414Q4.78516-0.400391 6.21094 0.214844Q7.63672 0.830078 9.24805 0.830078ZM9.24805-0.654297Q7.91992-0.654297 6.7627-1.14746Q5.60547-1.64062 4.73145-2.51953Q3.85742-3.39844 3.36426-4.56055Q2.87109-5.72266 2.87109-7.05078Q2.87109-8.37891 3.35938-9.54102Q3.84766-10.7031 4.72168-11.582Q5.5957-12.4609 6.75293-12.9541Q7.91016-13.4473 9.23828-13.4473Q10.5762-13.4473 11.7334-12.9541Q12.8906-12.4609 13.7695-11.582Q14.6484-10.7031 15.1465-9.54102Q15.6445-8.37891 15.6445-7.05078Q15.6445-5.72266 15.1514-4.56055Q14.6582-3.39844 13.7842-2.51953Q12.9102-1.64062 11.748-1.14746Q10.5859-0.654297 9.24805-0.654297ZM5.83984-7.04102Q5.83984-6.71875 6.04492-6.51855Q6.25-6.31836 6.5918-6.31836L8.50586-6.31836L8.50586-4.39453Q8.50586-4.0625 8.70605-3.85742Q8.90625-3.65234 9.22852-3.65234Q9.56055-3.65234 9.76562-3.85742Q9.9707-4.0625 9.9707-4.39453L9.9707-6.31836L11.8945-6.31836Q12.2266-6.31836 12.4316-6.51855Q12.6367-6.71875 12.6367-7.04102Q12.6367-7.37305 12.4316-7.57812Q12.2266-7.7832 11.8945-7.7832L9.9707-7.7832L9.9707-9.69727Q9.9707-10.0391 9.76562-10.2441Q9.56055-10.4492 9.22852-10.4492Q8.90625-10.4492 8.70605-10.2441Q8.50586-10.0391 8.50586-9.69727L8.50586-7.7832L6.5918-7.7832Q6.25-7.7832 6.04492-7.57812Q5.83984-7.37305 5.83984-7.04102Z"></path>
        </g>
        <g transform="matrix(1 0 0 1 281.867 1933)">
            <path d="M11.709 2.91016Q13.75 2.91016 15.5518 2.12891Q17.3535 1.34766 18.7305-0.0292969Q20.1074-1.40625 20.8887-3.20801Q21.6699-5.00977 21.6699-7.05078Q21.6699-9.0918 20.8887-10.8936Q20.1074-12.6953 18.7305-14.0723Q17.3535-15.4492 15.5469-16.2305Q13.7402-17.0117 11.6992-17.0117Q9.6582-17.0117 7.85645-16.2305Q6.05469-15.4492 4.68262-14.0723Q3.31055-12.6953 2.5293-10.8936Q1.74805-9.0918 1.74805-7.05078Q1.74805-5.00977 2.5293-3.20801Q3.31055-1.40625 4.6875-0.0292969Q6.06445 1.34766 7.86621 2.12891Q9.66797 2.91016 11.709 2.91016ZM11.709 1.25Q9.98047 1.25 8.47656 0.605469Q6.97266-0.0390625 5.83496-1.17676Q4.69727-2.31445 4.05762-3.81836Q3.41797-5.32227 3.41797-7.05078Q3.41797-8.7793 4.05762-10.2832Q4.69727-11.7871 5.83008-12.9297Q6.96289-14.0723 8.4668-14.7119Q9.9707-15.3516 11.6992-15.3516Q13.4277-15.3516 14.9316-14.7119Q16.4355-14.0723 17.5781-12.9297Q18.7207-11.7871 19.3652-10.2832Q20.0098-8.7793 20.0098-7.05078Q20.0098-5.32227 19.3701-3.81836Q18.7305-2.31445 17.5928-1.17676Q16.4551-0.0390625 14.9463 0.605469Q13.4375 1.25 11.709 1.25ZM7.39258-7.04102Q7.39258-6.68945 7.62695-6.46484Q7.86133-6.24023 8.23242-6.24023L10.8789-6.24023L10.8789-3.57422Q10.8789-3.21289 11.1035-2.9834Q11.3281-2.75391 11.6797-2.75391Q12.0508-2.75391 12.2852-2.9834Q12.5195-3.21289 12.5195-3.57422L12.5195-6.24023L15.1758-6.24023Q15.5371-6.24023 15.7715-6.46484Q16.0059-6.68945 16.0059-7.04102Q16.0059-7.41211 15.7715-7.6416Q15.5371-7.87109 15.1758-7.87109L12.5195-7.87109L12.5195-10.5176Q12.5195-10.8984 12.2852-11.1279Q12.0508-11.3574 11.6797-11.3574Q11.3281-11.3574 11.1035-11.1279Q10.8789-10.8984 10.8789-10.5176L10.8789-7.87109L8.23242-7.87109Q7.85156-7.87109 7.62207-7.6416Q7.39258-7.41211 7.39258-7.04102Z"></path>
        </g>
        <g transform="matrix(1 0 0 1 305.646 1933)">
            <path d="M14.9707 5.66406Q17.0605 5.66406 18.96 5.01465Q20.8594 4.36523 22.4512 3.19336Q24.043 2.02148 25.2197 0.429688Q26.3965-1.16211 27.0459-3.06641Q27.6953-4.9707 27.6953-7.05078Q27.6953-9.14062 27.0459-11.04Q26.3965-12.9395 25.2197-14.5312Q24.043-16.123 22.4512-17.2998Q20.8594-18.4766 18.9551-19.126Q17.0508-19.7754 14.9609-19.7754Q12.8711-19.7754 10.9717-19.126Q9.07227-18.4766 7.48535-17.2998Q5.89844-16.123 4.72168-14.5312Q3.54492-12.9395 2.90039-11.04Q2.25586-9.14062 2.25586-7.05078Q2.25586-4.9707 2.90527-3.06641Q3.55469-1.16211 4.72656 0.429688Q5.89844 2.02148 7.49023 3.19336Q9.08203 4.36523 10.9814 5.01465Q12.8809 5.66406 14.9707 5.66406ZM14.9707 3.84766Q13.1641 3.84766 11.5283 3.2959Q9.89258 2.74414 8.53516 1.74805Q7.17773 0.751953 6.17676-0.610352Q5.17578-1.97266 4.62891-3.6084Q4.08203-5.24414 4.08203-7.05078Q4.08203-8.86719 4.62891-10.5029Q5.17578-12.1387 6.17188-13.501Q7.16797-14.8633 8.52539-15.8594Q9.88281-16.8555 11.5186-17.4023Q13.1543-17.9492 14.9609-17.9492Q16.7773-17.9492 18.4131-17.4023Q20.0488-16.8555 21.4111-15.8594Q22.7734-14.8633 23.7695-13.501Q24.7656-12.1387 25.3174-10.5029Q25.8691-8.86719 25.8691-7.05078Q25.8789-5.24414 25.332-3.6084Q24.7852-1.97266 23.7842-0.610352Q22.7832 0.751953 21.4209 1.74805Q20.0586 2.74414 18.4229 3.2959Q16.7871 3.84766 14.9707 3.84766ZM9.45312-7.04102Q9.45312-6.66016 9.71191-6.41113Q9.9707-6.16211 10.3711-6.16211L14.0625-6.16211L14.0625-2.46094Q14.0625-2.06055 14.3115-1.80664Q14.5605-1.55273 14.9414-1.55273Q15.3516-1.55273 15.6055-1.80664Q15.8594-2.06055 15.8594-2.46094L15.8594-6.16211L19.5605-6.16211Q19.9609-6.16211 20.2148-6.41113Q20.4688-6.66016 20.4688-7.04102Q20.4688-7.45117 20.2148-7.70508Q19.9609-7.95898 19.5605-7.95898L15.8594-7.95898L15.8594-11.6504Q15.8594-12.0605 15.6055-12.3145Q15.3516-12.5684 14.9414-12.5684Q14.5605-12.5684 14.3115-12.3096Q14.0625-12.0508 14.0625-11.6504L14.0625-7.95898L10.3711-7.95898Q9.96094-7.95898 9.70703-7.70508Q9.45312-7.45117 9.45312-7.04102Z"></path>
        </g>
        <text style="stroke:none;fill:black;font-family:sans-serif;font-size:13;font-weight:bold;" transform="matrix(1 0 0 1 263 1953)">Design Variations</text>
        <text style="stroke:none;fill:black;font-family:sans-serif;font-size:13;" transform="matrix(1 0 0 1 263 1971)">Symbols are supported in up to nine weights and three scales.</text>
        <text style="stroke:none;fill:black;font-family:sans-serif;font-size:13;" transform="matrix(1 0 0 1 263 1989)">For optimal layout with text and other symbols, vertically align</text>
        <text style="stroke:none;fill:black;font-family:sans-serif;font-size:13;" transform="matrix(1 0 0 1 263 2007)">symbols with the adjacent text.</text>
        <line style="fill:none;stroke:#00AEEF;stroke-width:0.5;opacity:1.0;" x1="776" x2="776" y1="1919" y2="1933"></line>
        <g transform="matrix(1 0 0 1 776 1933)">
            <path d="M3.31055 0.15625Q3.70117 0.15625 3.91602-0.00976562Q4.13086-0.175781 4.26758-0.585938L5.52734-4.0332L11.2891-4.0332L12.5488-0.585938Q12.6855-0.175781 12.9004-0.00976562Q13.1152 0.15625 13.4961 0.15625Q13.8867 0.15625 14.1162-0.0585938Q14.3457-0.273438 14.3457-0.644531Q14.3457-0.869141 14.2383-1.17188L9.6582-13.3691Q9.48242-13.8184 9.17969-14.043Q8.87695-14.2676 8.4082-14.2676Q7.5-14.2676 7.17773-13.3789L2.59766-1.16211Q2.49023-0.859375 2.49023-0.634766Q2.49023-0.263672 2.70996-0.0537109Q2.92969 0.15625 3.31055 0.15625ZM6.00586-5.51758L8.37891-12.0898L8.42773-12.0898L10.8008-5.51758Z"></path>
        </g>
        <line style="fill:none;stroke:#00AEEF;stroke-width:0.5;opacity:1.0;" x1="793.197" x2="793.197" y1="1919" y2="1933"></line>
        <text style="stroke:none;fill:black;font-family:sans-serif;font-size:13;font-weight:bold;" transform="matrix(1 0 0 1 776 1953)">Margins</text>
        <text style="stroke:none;fill:black;font-family:sans-serif;font-size:13;" transform="matrix(1 0 0 1 776 1971)">Leading and trailing margins on the left and right side of each symbol</text>
        <text style="stroke:none;fill:black;font-family:sans-serif;font-size:13;" transform="matrix(1 0 0 1 776 1989)">can be adjusted by modifying the x-location of the margin guidelines.</text>
        <text style="stroke:none;fill:black;font-family:sans-serif;font-size:13;" transform="matrix(1 0 0 1 776 2007)">Modifications are automatically applied proportionally to all</text>
        <text style="stroke:none;fill:black;font-family:sans-serif;font-size:13;" transform="matrix(1 0 0 1 776 2025)">scales and weights.</text>
        <g transform="matrix(1 0 0 1 1289 1933)">
            <path d="M2.8418 1.86523L4.54102 3.57422Q5.18555 4.22852 5.90332 4.17969Q6.62109 4.13086 7.31445 3.35938L18.0078-8.42773L17.041-9.4043L6.42578 2.27539Q6.16211 2.57812 5.89355 2.61719Q5.625 2.65625 5.27344 2.30469L4.10156 1.14258Q3.75 0.791016 3.79395 0.522461Q3.83789 0.253906 4.14062-0.0195312L15.6152-10.8203L14.6387-11.7871L3.04688-0.898438Q2.30469-0.214844 2.25098 0.498047Q2.19727 1.21094 2.8418 1.86523ZM9.25781-16.3281Q8.94531-16.0254 8.90625-15.6348Q8.86719-15.2441 9.04297-14.9512Q9.21875-14.6777 9.55566-14.541Q9.89258-14.4043 10.3809-14.5215Q11.4746-14.7754 12.5977-14.7314Q13.7207-14.6875 14.7949-13.9844L14.209-12.5293Q13.9551-11.9043 14.0674-11.4404Q14.1797-10.9766 14.5801-10.5664L16.875-8.25195Q17.2363-7.88086 17.5781-7.82227Q17.9199-7.76367 18.3398-7.8418L19.4043-8.03711L20.0684-7.36328L20.0293-6.80664Q20-6.43555 20.1221-6.12305Q20.2441-5.81055 20.6055-5.44922L21.3672-4.70703Q21.7285-4.3457 22.1533-4.33105Q22.5781-4.31641 22.9297-4.66797L25.8398-7.58789Q26.1914-7.93945 26.1816-8.35449Q26.1719-8.76953 25.8105-9.13086L25.0391-9.89258Q24.6875-10.2539 24.3799-10.3857Q24.0723-10.5176 23.7109-10.4883L23.1348-10.4395L22.4902-11.0742L22.7344-12.1973Q22.832-12.6172 22.6953-12.9834Q22.5586-13.3496 22.1191-13.7891L19.9219-15.9766Q18.6719-17.2168 17.2607-17.8369Q15.8496-18.457 14.4189-18.4814Q12.9883-18.5059 11.665-17.959Q10.3418-17.4121 9.25781-16.3281ZM10.752-15.957Q11.6602-16.6211 12.7002-16.9043Q13.7402-17.1875 14.8047-17.085Q15.8691-16.9824 16.8701-16.5137Q17.8711-16.0449 18.7012-15.2051L21.1328-12.793Q21.3086-12.6172 21.3525-12.4512Q21.3965-12.2852 21.3379-12.0312L21.0156-10.5469L22.5195-9.0625L23.5059-9.12109Q23.6914-9.13086 23.7891-9.09668Q23.8867-9.0625 24.0332-8.91602L24.6094-8.33984L22.168-5.89844L21.5918-6.47461Q21.4453-6.62109 21.4062-6.71875Q21.3672-6.81641 21.377-7.01172L21.4453-7.98828L19.9512-9.47266L18.4277-9.21875Q18.1836-9.16992 18.042-9.2041Q17.9004-9.23828 17.7148-9.41406L15.7129-11.416Q15.5176-11.5918 15.4932-11.7529Q15.4688-11.9141 15.5859-12.1875L16.4648-14.2773Q15.293-15.3711 13.8281-15.791Q12.3633-16.2109 10.8398-15.7617Q10.7227-15.7324 10.6885-15.8057Q10.6543-15.8789 10.752-15.957Z"></path>
        </g>
        <text style="stroke:none;fill:black;font-family:sans-serif;font-size:13;font-weight:bold;" transform="matrix(1 0 0 1 1289 1953)">Exporting</text>
        <text style="stroke:none;fill:black;font-family:sans-serif;font-size:13;" transform="matrix(1 0 0 1 1289 1971)">Symbols should be outlined when exporting to ensure the</text>
        <text style="stroke:none;fill:black;font-family:sans-serif;font-size:13;" transform="matrix(1 0 0 1 1289 1989)">design is preserved when submitting to Xcode.</text>
        <text id="template-version" style="stroke:none;fill:black;font-family:sans-serif;font-size:13;text-anchor:end;" transform="matrix(1 0 0 1 3036 1933)">Template v.3.0</text>
        <text style="stroke:none;fill:black;font-family:sans-serif;font-size:13;text-anchor:end;" transform="matrix(1 0 0 1 3036 1951)">Requires Xcode 13 or greater</text>
        <text id="descriptive-name" style="stroke:none;fill:black;font-family:sans-serif;font-size:13;text-anchor:end;" transform="matrix(1 0 0 1 3036 1969)">Generated from custom.pencil.circle</text>
        <text style="stroke:none;fill:black;font-family:sans-serif;font-size:13;text-anchor:end;" transform="matrix(1 0 0 1 3036 1987)">Typeset at 100 points</text>
        <text style="stroke:none;fill:black;font-family:sans-serif;font-size:13;" transform="matrix(1 0 0 1 263 726)">Small</text>
        <text style="stroke:none;fill:black;font-family:sans-serif;font-size:13;" transform="matrix(1 0 0 1 263 1156)">Medium</text>
        <text style="stroke:none;fill:black;font-family:sans-serif;font-size:13;" transform="matrix(1 0 0 1 263 1586)">Large</text>
    </g>
    <g id="Guides">
        <g id="H-reference" style="fill:#27AAE1;stroke:none;" transform="matrix(1 0 0 1 339 696)">
            <path d="M0.976562 0L3.66211 0L29.3457-67.1387L30.0293-67.1387L30.0293-70.459L28.125-70.459ZM11.6699-24.4629L46.9727-24.4629L46.2402-26.709L12.4512-26.709ZM55.127 0L57.7637 0L30.6152-70.459L29.4434-70.459L29.4434-67.1387Z"></path>
        </g>
        <line id="Baseline-S" style="fill:none;stroke:#27AAE1;opacity:1;stroke-width:0.5;" x1="263" x2="3036" y1="696" y2="696"></line>
        <line id="Capline-S" style="fill:none;stroke:#27AAE1;opacity:1;stroke-width:0.5;" x1="263" x2="3036" y1="625.541" y2="625.541"></line>
        <g id="H-reference" style="fill:#27AAE1;stroke:none;" transform="matrix(1 0 0 1 339 1126)">
            <path d="M0.976562 0L3.66211 0L29.3457-67.1387L30.0293-67.1387L30.0293-70.459L28.125-70.459ZM11.6699-24.4629L46.9727-24.4629L46.2402-26.709L12.4512-26.709ZM55.127 0L57.7637 0L30.6152-70.459L29.4434-70.459L29.4434-67.1387Z"></path>
        </g>
        <line id="Baseline-M" style="fill:none;stroke:#27AAE1;opacity:1;stroke-width:0.5;" x1="263" x2="3036" y1="1126" y2="1126"></line>
        <line id="Capline-M" style="fill:none;stroke:#27AAE1;opacity:1;stroke-width:0.5;" x1="263" x2="3036" y1="1055.54" y2="1055.54"></line>
        <g id="H-reference" style="fill:#27AAE1;stroke:none;" transform="matrix(1 0 0 1 339 1556)">
            <path d="M0.976562 0L3.66211 0L29.3457-67.1387L30.0293-67.1387L30.0293-70.459L28.125-70.459ZM11.6699-24.4629L46.9727-24.4629L46.2402-26.709L12.4512-26.709ZM55.127 0L57.7637 0L30.6152-70.459L29.4434-70.459L29.4434-67.1387Z"></path>
        </g>
        <line id="Baseline-L" style="fill:none;stroke:#27AAE1;opacity:1;stroke-width:0.5;" x1="263" x2="3036" y1="1556" y2="1556"></line>
        <line id="Capline-L" style="fill:none;stroke:#27AAE1;opacity:1;stroke-width:0.5;" x1="263" x2="3036" y1="1485.54" y2="1485.54"></line>
        <line id="left-margin-Ultralight-S" style="fill:none;stroke:#00AEEF;stroke-width:0.5;opacity:1.0;" x1="512.1648658370972" x2="512.1648658370972" y1="600.784" y2="720.121"></line>
        <line id="right-margin-Ultralight-S" style="fill:none;stroke:#00AEEF;stroke-width:0.5;opacity:1.0;" x1="607.2571312332153" x2="607.2571312332153" y1="600.784" y2="720.121"></line>
        <line id="left-margin-Regular-S" style="fill:none;stroke:#00AEEF;stroke-width:0.5;opacity:1.0;" x1="1396.8932938575745" x2="1396.8932938575745" y1="600.784" y2="720.121"></line>
        <line id="right-margin-Regular-S" style="fill:none;stroke:#00AEEF;stroke-width:0.5;opacity:1.0;" x1="1502.7966475486755" x2="1502.7966475486755" y1="600.784" y2="720.121"></line>
        <line id="left-margin-Black-S" style="fill:none;stroke:#00AEEF;stroke-width:0.5;opacity:1.0;" x1="2873.4865436553955" x2="2873.4865436553955" y1="600.784" y2="720.121"></line>
        <line id="right-margin-Black-S" style="fill:none;stroke:#00AEEF;stroke-width:0.5;opacity:1.0;" x1="2993.3135051727295" x2="2993.3135051727295" y1="600.784" y2="720.121"></line>
    </g>
<g id="Symbols"><g id="Ultralight-S" transform="matrix(1,0,0,1,504.96099853515625,606.0205078125)"><path d="M60.50094 79.65906c2.5053599999999996-1.44759 5.20782-1.45854 6.033449999999999-0.02628 0.82563 1.43226-0.53436 3.7646100000000002-3.0397199999999995 5.212199999999999-2.5053599999999996 1.44759-5.20782 1.45854-6.033449999999999 0.02628C56.633399999999995 83.43900000000001 57.99558 81.10445999999999 60.50094 79.65906z"></path><path d="M77.16684 76.79235c2.38272 1.6425 3.55437 4.07559 2.6148599999999997 5.43777-0.9373199999999999 1.36218-3.62883 1.13442-6.01155-0.50808-2.38272-1.6425-3.55437-4.07559-2.6148599999999997-5.43777C72.09261 74.92428000000001 74.78412 75.14984999999999 77.16684 76.79235z"></path><path d="M90.43605 80.75406000000001c0 2.8929899999999997-1.34028 5.23848-2.99373 5.23848-1.6534499999999999 0-2.99373-2.34549-2.99373-5.23848s1.34028-5.23848 2.99373-5.23848C89.09577 75.51558 90.43605 77.86107 90.43605 80.75406000000001z"></path><path d="M71.72688000000001 91.98c-2.8929899999999997 0-5.23848-1.34028-5.23848-2.99373 0-1.6534499999999999 2.34549-2.99373 5.23848-2.99373 2.8929899999999997 0 5.23848 1.34028 5.23848 2.99373C76.96535999999999 90.63972 74.61987 91.98 71.72688000000001 91.98z"></path><path d="M47.78799 76.92813000000001c0 0-20.92326-14.43867-27.898410000000002-19.25229-3.72081-2.56887-4.6734599999999995-7.66719-2.09145-11.40771 4.52892-6.56781 13.59333-19.701240000000002 18.12444-26.269049999999996 2.56887-3.72081 7.665-4.6734599999999995 11.40771-2.09145 10.1397 6.99267 40.55442 27.98382 40.55442 27.98382 0.49713 0.34382999999999997 0.62196 1.02492 0.27813 1.5242399999999998l-11.04417 16.006709999999998c-0.14454 0.21024-0.35916 0.36354000000000003-0.6044400000000001 0.43143000000000004l-7.46133 2.1002099999999997-6.05973 5.8692c-0.19271999999999997 0.18615-0.44894999999999996 0.29565-0.71832 0.30660000000000004l-8.1468 0.32193-4.99539 4.39752C48.82824 77.11647 48.27636 77.2632 47.78799 76.92813000000001zM19.60269 47.51205c-1.88778 2.72436-1.19574 6.47802 1.533 8.36142 6.79776 4.69098 27.19323 18.76611 27.19323 18.76611l4.64499-4.090920000000001c0.18833999999999998-0.16644 0.42924-0.2628 0.68109-0.27155999999999997l8.11833-0.31973999999999997 5.9568-5.77065c0.1314-0.12702 0.28908-0.219 0.46427999999999997-0.26718l7.347449999999999-2.06736 10.19883-14.780309999999998c0 0-29.742389999999997-20.51592-39.65214-27.36186-2.72655-1.8834-6.47145-1.2088800000000002-8.36142 1.533C22.6446 43.12329 19.82826 47.18793 19.60269 47.51205z"></path><path d="M57.04074 47.68287c2.33892 1.59432 2.94117 4.78515 1.34466 7.121879999999999-1.59432 2.33892-4.78515 2.94117-7.121879999999999 1.34466-0.20804999999999998-0.14235-0.38543999999999995-0.31098-0.56721-0.47523-0.03504 0.24309-0.06351 0.48399-0.13577999999999998 0.7270800000000001-0.79497 2.7177900000000004-3.64197 4.27488-6.35757 3.47991-2.7177900000000004-0.79497-4.27488-3.64197-3.47991-6.35757 0.07008-0.24309 0.17739-0.46427999999999997 0.27813-0.6876599999999999-0.2409 0.04161-0.4818 0.0876-0.73365 0.09635999999999999-2.82948 0.08322-5.1903-2.14182-5.2735199999999995-4.9713-0.08322-2.82948 2.14182-5.1903 4.9713-5.2735199999999995 0.25185-0.00657 0.49275 0.024089999999999997 0.73584 0.05256-0.11388-0.21681-0.23213999999999999-0.42924-0.31754999999999994-0.66576-0.95484-2.66523 0.43362-5.59983 3.09885-6.55248 2.66523-0.95484 5.59983 0.43362 6.55248 3.09885 0.08541 0.23651999999999998 0.12921 0.47742 0.17739 0.71832 0.17082-0.1752 0.33726-0.35478 0.53655-0.50808 2.2403699999999995-1.7301 5.45967-1.3183799999999999 7.189769999999999 0.92199 1.7301 2.2403699999999995 1.3183799999999999 5.45967-0.92199 7.189769999999999-0.19929 0.15330000000000002-0.41391 0.27155999999999997-0.6263399999999999 0.39200999999999997C56.60931 47.43759 56.83269 47.540519999999994 57.04074 47.68287zM51.66647999999999 50.251740000000005c1.34028-1.9425299999999999 0.8519100000000001-4.60119-1.09062-5.94147s-4.60119-0.8519100000000001-5.94147 1.09062-0.8519100000000001 4.60119 1.09062 5.94147C47.667539999999995 52.68045 50.32839 52.19208 51.66647999999999 50.251740000000005z"></path></g><g id="Regular-S" transform="matrix(1,0,0,1,1392.564970703125,603.4905078125)"><path d="M64.44 85.50472c2.99646-1.72914 6.22741-1.74525 7.21549-0.03222S71.01646 89.97614 68.02 91.70528c-2.99646 1.72914-6.22741 1.74525-7.21549 0.03222S61.44354 87.23386 64.44 85.50472z"></path><path d="M84.37165 82.07687c2.84968 1.96363 4.24946 4.8741699999999994 3.12713 6.50307s-4.34075 1.3568200000000001-7.190430000000001-0.6068100000000001-4.24946-4.8741699999999994-3.12713-6.50307S81.52197 80.11324 84.37165 82.07687z"></path><path d="M100.24000000000001 86.815c0 3.46007-1.60205 6.265000000000001-3.58 6.265000000000001s-3.58-2.80493-3.58-6.265000000000001 1.60205-6.265000000000001 3.58-6.265000000000001S100.24000000000001 83.35493 100.24000000000001 86.815z"></path><path d="M77.865 100.24000000000001c-3.46007 0-6.265000000000001-1.60205-6.265000000000001-3.58s2.80493-3.58 6.265000000000001-3.58 6.265000000000001 1.60205 6.265000000000001 3.58S81.32507 100.24000000000001 77.865 100.24000000000001z"></path><path d="M49.25543 81.71887c0 0-21.92213-15.12908-29.2307-20.17151-5.00484-3.45291-6.09137-10.179730000000001-2.82999-15.311660000000002 0.02327-0.037590000000000005-0.8072900000000001 1.16887 19.00801-27.5481 3.4278500000000003-4.96725 10.27818-6.30259 15.33493-2.81209 10.62186 7.331840000000001 42.49102 29.3202 42.49102 29.3202 1.82401 1.25837 1.89561 3.5567300000000004 0.91469 4.97978L83.37104000000001 66.946c-0.47614 0.6873600000000001-1.17245 1.18677-1.9761600000000001 1.4141000000000001l-7.22623 2.0334399999999997-5.907 5.720840000000001c-0.63366 0.6121800000000001-1.46959 0.97018-2.3484800000000003 1.00598l-7.67373 0.30251-4.58598 4.03645C52.65464 82.34179 50.839580000000005 82.81256 49.25543 81.71887zM23.10353 50.27752c-1.2118300000000002 1.75599-0.76791 4.16712 0.9862900000000001 5.37716 6.73219 4.64684 26.93055 18.58199 26.93055 18.58199l3.44217-3.02868c0.6175499999999999-0.54416 1.40157-0.85741 2.22318-0.89142l7.57528-0.29893000000000003 5.57406-5.39864c0.42602-0.41349 0.9487000000000001-0.71421 1.5215-0.87531l6.853910000000001-1.9296200000000001 8.80501-12.760909999999999c0 0-29.65493-20.47044-39.54468-27.28676-1.75778-1.2118300000000002-4.16712-0.76791-5.37537 0.9862900000000001C37.35193 29.63882 27.852400000000003 43.39855 23.10353 50.27752z"></path><path d="M60.32837000000001 49.07643c2.45051 1.6718600000000001 3.0805900000000004 5.012 1.40873 7.462509999999999-1.6718600000000001 2.45051-5.012 3.0805900000000004-7.462509999999999 1.40873-0.21838-0.14857-0.40454-0.32578-0.5924900000000001-0.4994100000000001-0.0358 0.25417999999999996-0.06802 0.5083599999999999-0.14141 0.76254-0.83235 2.8461000000000003-3.8144899999999997 4.47858-6.66238 3.64623-2.8461000000000003-0.83235-4.47858-3.8144899999999997-3.64623-6.66238 0.07518000000000001-0.25417999999999996 0.18437-0.48509 0.29177000000000003-0.7195800000000001-0.25239 0.044750000000000005-0.50299 0.09308-0.76791 0.10024000000000001-2.9642399999999998 0.08771000000000001-5.43802-2.24466-5.52573-5.208900000000001-0.08771000000000001-2.9642399999999998 2.24466-5.43802 5.208900000000001-5.52573 0.26313-0.0071600000000000006 0.5173099999999999 0.025060000000000002 0.77149 0.05549-0.11993000000000001-0.22554000000000002-0.24344000000000002-0.44929-0.33115-0.6981-0.9988200000000002-2.7924 0.45466-5.865830000000001 3.2470600000000003-6.86644 2.7924-0.9988200000000002 5.865830000000001 0.45466 6.86644 3.2470600000000003 0.08950000000000001 0.24881000000000003 0.13604 0.5012000000000001 0.18616 0.7518 0.17900000000000002-0.18437 0.35263-0.37052999999999997 0.56206-0.53342 2.34669-1.81327 5.71905-1.38188 7.53232 0.9666000000000001s1.38009 5.71905-0.9666000000000001 7.53232c-0.20943 0.1611-0.43318 0.28282-0.65693 0.40991000000000005C59.87729 48.81867 60.10999 48.926069999999996 60.32837000000001 49.07643zM54.69882 51.7668c1.4033600000000002-2.0334399999999997 0.8932100000000001-4.82047-1.14202-6.22562s-4.82047-0.8932100000000001-6.22562 1.14202-0.8932100000000001 4.82047 1.14202 6.22562S53.295460000000006 53.80203 54.69882 51.7668z"></path></g><g id="Black-S" transform="matrix(1,0,0,1,2870.4000244140625,597.7705078125)"><path d="M68.10825 90.23875c4.1265-2.38175 8.0675-1.778 9.443 0.6107499999999999 1.505 2.604-0.38675 6.28425-4.193 8.48225-3.8150000000000004 2.19975-7.943249999999999 2.00025-9.44475-0.609C62.415499999999994 96.1275 64.281 92.44900000000001 68.10825 90.23875z"></path><path d="M92.96175000000001 86.96275c3.61025 2.4867500000000002 5.216749999999999 6.30525 3.50525 8.79025-1.7692499999999998 2.56375-5.922 2.29425-9.462250000000001-0.14525000000000002-3.6942500000000003-2.548-5.2045-6.32625-3.50875-8.79025C85.19525 84.35175 89.26400000000001 84.41475 92.96175000000001 86.96275z"></path><path d="M112.73325 93.037c0 4.48875-2.2575000000000003 7.875-5.25 7.875s-5.25-3.38625-5.25-7.875 2.2575000000000003-7.875 5.25-7.875S112.73325 88.5465 112.73325 93.037z"></path><path d="M85.60825 111.412c-4.48875 0-7.875-2.2575000000000003-7.875-5.25s3.38625-5.25 7.875-5.25 7.875 2.2575000000000003 7.875 5.25S90.09700000000001 111.412 85.60825 111.412z"></path><path d="M48.64825 89.18525c0 0-21.433999999999997-14.789250000000001-28.577499999999997-19.719-6.48025-4.473-8.114749999999999-13.38225-3.64175-19.864250000000002 4.641-6.726999999999999 13.92475-20.181 18.56575-26.90625 4.48-6.49425 13.36125-8.127 19.8625-3.6434999999999995 10.384500000000001 7.16625 41.53975 28.66325 41.53975 28.66325 3.1815 2.19625 3.9812499999999997 6.5555 1.7867499999999998 9.737L86.87 73.85000000000001c-0.9257500000000001 1.344-2.29425 2.3205-3.8640000000000003 2.7632499999999998l-6.21425 1.74825-5.141500000000001 4.976999999999999c-1.2355 1.19875-2.87175 1.8970000000000002-4.5920000000000005 1.967l-6.25975 0.24849999999999997-3.55075 3.1255C55.293 90.398 51.74575 91.322 48.64825 89.18525zM27.951 57.553999999999995c-0.077 0.10675-0.0385 0.31325 0.07 0.3885 6.00775 4.17025 24.08 16.6145 24.08 16.6145l1.31425-1.1567500000000002c1.2057499999999999-1.06225 2.7405-1.6764999999999999 4.3469999999999995-1.74125l6.072500000000001-0.23975000000000002 4.48875-4.3469999999999995c0.83475-0.8067500000000001 1.855-1.3947500000000002 2.9715-1.7097499999999999l5.48625-1.5435 5.90275-8.55575c0 0-26.845-18.49925-35.777-24.689-0.1085-0.07525-0.31325-0.036750000000000005-0.39025 0.07175000000000001C27.67975 57.61 28.07175 57.384249999999994 27.951 57.553999999999995z"></path><path d="M61.46175 54.39c2.39575 1.6345 3.01175 4.8999999999999995 1.37725 7.295749999999999-1.6345 2.39575-4.8999999999999995 3.01175-7.295749999999999 1.37725-0.2135-0.14525000000000002-0.3955-0.3185-0.57925-0.4882500000000001-0.035 0.24849999999999997-0.0665 0.49699999999999994-0.13825 0.7454999999999999-0.8137500000000001 2.7825-3.7292499999999995 4.3785-6.5135 3.56475-2.7825-0.8137500000000001-4.3785-3.7292499999999995-3.56475-6.5135 0.07350000000000001-0.24849999999999997 0.18025-0.47425000000000006 0.28525-0.7035-0.24674999999999997 0.043750000000000004-0.49175 0.091-0.75075 0.098-2.8979999999999997 0.08575-5.3165-2.1945-5.40225-5.0925-0.08575-2.8979999999999997 2.1945-5.3165 5.0925-5.40225 0.25725-0.007 0.5057499999999999 0.0245 0.75425 0.05425-0.11725000000000001-0.2205-0.23800000000000002-0.43925000000000003-0.32375-0.6825-0.9765000000000001-2.73 0.4445-5.73475 3.1745-6.713 2.73-0.9765000000000001 5.73475 0.4445 6.713 3.1745 0.08750000000000001 0.24325000000000002 0.133 0.49000000000000005 0.182 0.735 0.17500000000000002-0.18025 0.34475-0.36224999999999996 0.5495-0.5215 2.29425-1.7727499999999998 5.59125-1.351 7.364000000000001 0.9450000000000001s1.34925 5.59125-0.9450000000000001 7.364000000000001c-0.20475000000000002 0.1575-0.4235 0.2765-0.64225 0.40075C61.022499999999994 54.138 61.248250000000006 54.244749999999996 61.46175 54.39zM55.958 57.02025c1.372-1.9879999999999998 0.87325-4.71275-1.1165-6.0865-1.9879999999999998-1.372-4.71275-0.87325-6.0865 1.1165s-0.87325 4.71275 1.1165 6.0865S54.586 59.01 55.958 57.02025z"></path></g></g></svg>