<svg version="1.1" xmlns="http://www.w3.org/2000/svg" xmlns:xlink="http://www.w3.org/1999/xlink" width="3300" height="2200" viewBox="0 0 3300 2200">
    <g id="Notes">
        <rect height="2200" id="artboard" style="fill:white;opacity:1" width="3300" x="0" y="0"></rect>
        <line style="fill:none;stroke:black;opacity:1;stroke-width:0.5;" x1="263" x2="3036" y1="292" y2="292"></line>
        <text style="stroke:none;fill:black;font-family:sans-serif;font-size:13;font-weight:bold;" transform="matrix(1 0 0 1 263 322)">Weight/Scale Variations</text>
        <text style="stroke:none;fill:black;font-family:sans-serif;font-size:13;text-anchor:middle;" transform="matrix(1 0 0 1 559.711 322)">Ultralight</text>
        <text style="stroke:none;fill:black;font-family:sans-serif;font-size:13;text-anchor:middle;" transform="matrix(1 0 0 1 856.422 322)">Thin</text>
        <text style="stroke:none;fill:black;font-family:sans-serif;font-size:13;text-anchor:middle;" transform="matrix(1 0 0 1 1153.13 322)">Light</text>
        <text style="stroke:none;fill:black;font-family:sans-serif;font-size:13;text-anchor:middle;" transform="matrix(1 0 0 1 1449.84 322)">Regular</text>
        <text style="stroke:none;fill:black;font-family:sans-serif;font-size:13;text-anchor:middle;" transform="matrix(1 0 0 1 1746.56 322)">Medium</text>
        <text style="stroke:none;fill:black;font-family:sans-serif;font-size:13;text-anchor:middle;" transform="matrix(1 0 0 1 2043.27 322)">Semibold</text>
        <text style="stroke:none;fill:black;font-family:sans-serif;font-size:13;text-anchor:middle;" transform="matrix(1 0 0 1 2339.98 322)">Bold</text>
        <text style="stroke:none;fill:black;font-family:sans-serif;font-size:13;text-anchor:middle;" transform="matrix(1 0 0 1 2636.69 322)">Heavy</text>
        <text style="stroke:none;fill:black;font-family:sans-serif;font-size:13;text-anchor:middle;" transform="matrix(1 0 0 1 2933.4 322)">Black</text>
        <line style="fill:none;stroke:black;opacity:1;stroke-width:0.5;" x1="263" x2="3036" y1="1903" y2="1903"></line>
        <g transform="matrix(1 0 0 1 263 1933)">
            <path d="M9.24805 0.830078Q10.8691 0.830078 12.2949 0.214844Q13.7207-0.400391 14.8096-1.49414Q15.8984-2.58789 16.5186-4.01367Q17.1387-5.43945 17.1387-7.05078Q17.1387-8.66211 16.5186-10.0879Q15.8984-11.5137 14.8047-12.6074Q13.7109-13.7012 12.2852-14.3164Q10.8594-14.9316 9.23828-14.9316Q7.62695-14.9316 6.20117-14.3164Q4.77539-13.7012 3.69141-12.6074Q2.60742-11.5137 1.9873-10.0879Q1.36719-8.66211 1.36719-7.05078Q1.36719-5.43945 1.9873-4.01367Q2.60742-2.58789 3.69629-1.49414Q4.78516-0.400391 6.21094 0.214844Q7.63672 0.830078 9.24805 0.830078ZM9.24805-0.654297Q7.91992-0.654297 6.7627-1.14746Q5.60547-1.64062 4.73145-2.51953Q3.85742-3.39844 3.36426-4.56055Q2.87109-5.72266 2.87109-7.05078Q2.87109-8.37891 3.35938-9.54102Q3.84766-10.7031 4.72168-11.582Q5.5957-12.4609 6.75293-12.9541Q7.91016-13.4473 9.23828-13.4473Q10.5762-13.4473 11.7334-12.9541Q12.8906-12.4609 13.7695-11.582Q14.6484-10.7031 15.1465-9.54102Q15.6445-8.37891 15.6445-7.05078Q15.6445-5.72266 15.1514-4.56055Q14.6582-3.39844 13.7842-2.51953Q12.9102-1.64062 11.748-1.14746Q10.5859-0.654297 9.24805-0.654297ZM5.83984-7.04102Q5.83984-6.71875 6.04492-6.51855Q6.25-6.31836 6.5918-6.31836L8.50586-6.31836L8.50586-4.39453Q8.50586-4.0625 8.70605-3.85742Q8.90625-3.65234 9.22852-3.65234Q9.56055-3.65234 9.76562-3.85742Q9.9707-4.0625 9.9707-4.39453L9.9707-6.31836L11.8945-6.31836Q12.2266-6.31836 12.4316-6.51855Q12.6367-6.71875 12.6367-7.04102Q12.6367-7.37305 12.4316-7.57812Q12.2266-7.7832 11.8945-7.7832L9.9707-7.7832L9.9707-9.69727Q9.9707-10.0391 9.76562-10.2441Q9.56055-10.4492 9.22852-10.4492Q8.90625-10.4492 8.70605-10.2441Q8.50586-10.0391 8.50586-9.69727L8.50586-7.7832L6.5918-7.7832Q6.25-7.7832 6.04492-7.57812Q5.83984-7.37305 5.83984-7.04102Z"></path>
        </g>
        <g transform="matrix(1 0 0 1 281.867 1933)">
            <path d="M11.709 2.91016Q13.75 2.91016 15.5518 2.12891Q17.3535 1.34766 18.7305-0.0292969Q20.1074-1.40625 20.8887-3.20801Q21.6699-5.00977 21.6699-7.05078Q21.6699-9.0918 20.8887-10.8936Q20.1074-12.6953 18.7305-14.0723Q17.3535-15.4492 15.5469-16.2305Q13.7402-17.0117 11.6992-17.0117Q9.6582-17.0117 7.85645-16.2305Q6.05469-15.4492 4.68262-14.0723Q3.31055-12.6953 2.5293-10.8936Q1.74805-9.0918 1.74805-7.05078Q1.74805-5.00977 2.5293-3.20801Q3.31055-1.40625 4.6875-0.0292969Q6.06445 1.34766 7.86621 2.12891Q9.66797 2.91016 11.709 2.91016ZM11.709 1.25Q9.98047 1.25 8.47656 0.605469Q6.97266-0.0390625 5.83496-1.17676Q4.69727-2.31445 4.05762-3.81836Q3.41797-5.32227 3.41797-7.05078Q3.41797-8.7793 4.05762-10.2832Q4.69727-11.7871 5.83008-12.9297Q6.96289-14.0723 8.4668-14.7119Q9.9707-15.3516 11.6992-15.3516Q13.4277-15.3516 14.9316-14.7119Q16.4355-14.0723 17.5781-12.9297Q18.7207-11.7871 19.3652-10.2832Q20.0098-8.7793 20.0098-7.05078Q20.0098-5.32227 19.3701-3.81836Q18.7305-2.31445 17.5928-1.17676Q16.4551-0.0390625 14.9463 0.605469Q13.4375 1.25 11.709 1.25ZM7.39258-7.04102Q7.39258-6.68945 7.62695-6.46484Q7.86133-6.24023 8.23242-6.24023L10.8789-6.24023L10.8789-3.57422Q10.8789-3.21289 11.1035-2.9834Q11.3281-2.75391 11.6797-2.75391Q12.0508-2.75391 12.2852-2.9834Q12.5195-3.21289 12.5195-3.57422L12.5195-6.24023L15.1758-6.24023Q15.5371-6.24023 15.7715-6.46484Q16.0059-6.68945 16.0059-7.04102Q16.0059-7.41211 15.7715-7.6416Q15.5371-7.87109 15.1758-7.87109L12.5195-7.87109L12.5195-10.5176Q12.5195-10.8984 12.2852-11.1279Q12.0508-11.3574 11.6797-11.3574Q11.3281-11.3574 11.1035-11.1279Q10.8789-10.8984 10.8789-10.5176L10.8789-7.87109L8.23242-7.87109Q7.85156-7.87109 7.62207-7.6416Q7.39258-7.41211 7.39258-7.04102Z"></path>
        </g>
        <g transform="matrix(1 0 0 1 305.646 1933)">
            <path d="M14.9707 5.66406Q17.0605 5.66406 18.96 5.01465Q20.8594 4.36523 22.4512 3.19336Q24.043 2.02148 25.2197 0.429688Q26.3965-1.16211 27.0459-3.06641Q27.6953-4.9707 27.6953-7.05078Q27.6953-9.14062 27.0459-11.04Q26.3965-12.9395 25.2197-14.5312Q24.043-16.123 22.4512-17.2998Q20.8594-18.4766 18.9551-19.126Q17.0508-19.7754 14.9609-19.7754Q12.8711-19.7754 10.9717-19.126Q9.07227-18.4766 7.48535-17.2998Q5.89844-16.123 4.72168-14.5312Q3.54492-12.9395 2.90039-11.04Q2.25586-9.14062 2.25586-7.05078Q2.25586-4.9707 2.90527-3.06641Q3.55469-1.16211 4.72656 0.429688Q5.89844 2.02148 7.49023 3.19336Q9.08203 4.36523 10.9814 5.01465Q12.8809 5.66406 14.9707 5.66406ZM14.9707 3.84766Q13.1641 3.84766 11.5283 3.2959Q9.89258 2.74414 8.53516 1.74805Q7.17773 0.751953 6.17676-0.610352Q5.17578-1.97266 4.62891-3.6084Q4.08203-5.24414 4.08203-7.05078Q4.08203-8.86719 4.62891-10.5029Q5.17578-12.1387 6.17188-13.501Q7.16797-14.8633 8.52539-15.8594Q9.88281-16.8555 11.5186-17.4023Q13.1543-17.9492 14.9609-17.9492Q16.7773-17.9492 18.4131-17.4023Q20.0488-16.8555 21.4111-15.8594Q22.7734-14.8633 23.7695-13.501Q24.7656-12.1387 25.3174-10.5029Q25.8691-8.86719 25.8691-7.05078Q25.8789-5.24414 25.332-3.6084Q24.7852-1.97266 23.7842-0.610352Q22.7832 0.751953 21.4209 1.74805Q20.0586 2.74414 18.4229 3.2959Q16.7871 3.84766 14.9707 3.84766ZM9.45312-7.04102Q9.45312-6.66016 9.71191-6.41113Q9.9707-6.16211 10.3711-6.16211L14.0625-6.16211L14.0625-2.46094Q14.0625-2.06055 14.3115-1.80664Q14.5605-1.55273 14.9414-1.55273Q15.3516-1.55273 15.6055-1.80664Q15.8594-2.06055 15.8594-2.46094L15.8594-6.16211L19.5605-6.16211Q19.9609-6.16211 20.2148-6.41113Q20.4688-6.66016 20.4688-7.04102Q20.4688-7.45117 20.2148-7.70508Q19.9609-7.95898 19.5605-7.95898L15.8594-7.95898L15.8594-11.6504Q15.8594-12.0605 15.6055-12.3145Q15.3516-12.5684 14.9414-12.5684Q14.5605-12.5684 14.3115-12.3096Q14.0625-12.0508 14.0625-11.6504L14.0625-7.95898L10.3711-7.95898Q9.96094-7.95898 9.70703-7.70508Q9.45312-7.45117 9.45312-7.04102Z"></path>
        </g>
        <text style="stroke:none;fill:black;font-family:sans-serif;font-size:13;font-weight:bold;" transform="matrix(1 0 0 1 263 1953)">Design Variations</text>
        <text style="stroke:none;fill:black;font-family:sans-serif;font-size:13;" transform="matrix(1 0 0 1 263 1971)">Symbols are supported in up to nine weights and three scales.</text>
        <text style="stroke:none;fill:black;font-family:sans-serif;font-size:13;" transform="matrix(1 0 0 1 263 1989)">For optimal layout with text and other symbols, vertically align</text>
        <text style="stroke:none;fill:black;font-family:sans-serif;font-size:13;" transform="matrix(1 0 0 1 263 2007)">symbols with the adjacent text.</text>
        <line style="fill:none;stroke:#00AEEF;stroke-width:0.5;opacity:1.0;" x1="776" x2="776" y1="1919" y2="1933"></line>
        <g transform="matrix(1 0 0 1 776 1933)">
            <path d="M3.31055 0.15625Q3.70117 0.15625 3.91602-0.00976562Q4.13086-0.175781 4.26758-0.585938L5.52734-4.0332L11.2891-4.0332L12.5488-0.585938Q12.6855-0.175781 12.9004-0.00976562Q13.1152 0.15625 13.4961 0.15625Q13.8867 0.15625 14.1162-0.0585938Q14.3457-0.273438 14.3457-0.644531Q14.3457-0.869141 14.2383-1.17188L9.6582-13.3691Q9.48242-13.8184 9.17969-14.043Q8.87695-14.2676 8.4082-14.2676Q7.5-14.2676 7.17773-13.3789L2.59766-1.16211Q2.49023-0.859375 2.49023-0.634766Q2.49023-0.263672 2.70996-0.0537109Q2.92969 0.15625 3.31055 0.15625ZM6.00586-5.51758L8.37891-12.0898L8.42773-12.0898L10.8008-5.51758Z"></path>
        </g>
        <line style="fill:none;stroke:#00AEEF;stroke-width:0.5;opacity:1.0;" x1="793.197" x2="793.197" y1="1919" y2="1933"></line>
        <text style="stroke:none;fill:black;font-family:sans-serif;font-size:13;font-weight:bold;" transform="matrix(1 0 0 1 776 1953)">Margins</text>
        <text style="stroke:none;fill:black;font-family:sans-serif;font-size:13;" transform="matrix(1 0 0 1 776 1971)">Leading and trailing margins on the left and right side of each symbol</text>
        <text style="stroke:none;fill:black;font-family:sans-serif;font-size:13;" transform="matrix(1 0 0 1 776 1989)">can be adjusted by modifying the x-location of the margin guidelines.</text>
        <text style="stroke:none;fill:black;font-family:sans-serif;font-size:13;" transform="matrix(1 0 0 1 776 2007)">Modifications are automatically applied proportionally to all</text>
        <text style="stroke:none;fill:black;font-family:sans-serif;font-size:13;" transform="matrix(1 0 0 1 776 2025)">scales and weights.</text>
        <g transform="matrix(1 0 0 1 1289 1933)">
            <path d="M2.8418 1.86523L4.54102 3.57422Q5.18555 4.22852 5.90332 4.17969Q6.62109 4.13086 7.31445 3.35938L18.0078-8.42773L17.041-9.4043L6.42578 2.27539Q6.16211 2.57812 5.89355 2.61719Q5.625 2.65625 5.27344 2.30469L4.10156 1.14258Q3.75 0.791016 3.79395 0.522461Q3.83789 0.253906 4.14062-0.0195312L15.6152-10.8203L14.6387-11.7871L3.04688-0.898438Q2.30469-0.214844 2.25098 0.498047Q2.19727 1.21094 2.8418 1.86523ZM9.25781-16.3281Q8.94531-16.0254 8.90625-15.6348Q8.86719-15.2441 9.04297-14.9512Q9.21875-14.6777 9.55566-14.541Q9.89258-14.4043 10.3809-14.5215Q11.4746-14.7754 12.5977-14.7314Q13.7207-14.6875 14.7949-13.9844L14.209-12.5293Q13.9551-11.9043 14.0674-11.4404Q14.1797-10.9766 14.5801-10.5664L16.875-8.25195Q17.2363-7.88086 17.5781-7.82227Q17.9199-7.76367 18.3398-7.8418L19.4043-8.03711L20.0684-7.36328L20.0293-6.80664Q20-6.43555 20.1221-6.12305Q20.2441-5.81055 20.6055-5.44922L21.3672-4.70703Q21.7285-4.3457 22.1533-4.33105Q22.5781-4.31641 22.9297-4.66797L25.8398-7.58789Q26.1914-7.93945 26.1816-8.35449Q26.1719-8.76953 25.8105-9.13086L25.0391-9.89258Q24.6875-10.2539 24.3799-10.3857Q24.0723-10.5176 23.7109-10.4883L23.1348-10.4395L22.4902-11.0742L22.7344-12.1973Q22.832-12.6172 22.6953-12.9834Q22.5586-13.3496 22.1191-13.7891L19.9219-15.9766Q18.6719-17.2168 17.2607-17.8369Q15.8496-18.457 14.4189-18.4814Q12.9883-18.5059 11.665-17.959Q10.3418-17.4121 9.25781-16.3281ZM10.752-15.957Q11.6602-16.6211 12.7002-16.9043Q13.7402-17.1875 14.8047-17.085Q15.8691-16.9824 16.8701-16.5137Q17.8711-16.0449 18.7012-15.2051L21.1328-12.793Q21.3086-12.6172 21.3525-12.4512Q21.3965-12.2852 21.3379-12.0312L21.0156-10.5469L22.5195-9.0625L23.5059-9.12109Q23.6914-9.13086 23.7891-9.09668Q23.8867-9.0625 24.0332-8.91602L24.6094-8.33984L22.168-5.89844L21.5918-6.47461Q21.4453-6.62109 21.4062-6.71875Q21.3672-6.81641 21.377-7.01172L21.4453-7.98828L19.9512-9.47266L18.4277-9.21875Q18.1836-9.16992 18.042-9.2041Q17.9004-9.23828 17.7148-9.41406L15.7129-11.416Q15.5176-11.5918 15.4932-11.7529Q15.4688-11.9141 15.5859-12.1875L16.4648-14.2773Q15.293-15.3711 13.8281-15.791Q12.3633-16.2109 10.8398-15.7617Q10.7227-15.7324 10.6885-15.8057Q10.6543-15.8789 10.752-15.957Z"></path>
        </g>
        <text style="stroke:none;fill:black;font-family:sans-serif;font-size:13;font-weight:bold;" transform="matrix(1 0 0 1 1289 1953)">Exporting</text>
        <text style="stroke:none;fill:black;font-family:sans-serif;font-size:13;" transform="matrix(1 0 0 1 1289 1971)">Symbols should be outlined when exporting to ensure the</text>
        <text style="stroke:none;fill:black;font-family:sans-serif;font-size:13;" transform="matrix(1 0 0 1 1289 1989)">design is preserved when submitting to Xcode.</text>
        <text id="template-version" style="stroke:none;fill:black;font-family:sans-serif;font-size:13;text-anchor:end;" transform="matrix(1 0 0 1 3036 1933)">Template v.3.0</text>
        <text style="stroke:none;fill:black;font-family:sans-serif;font-size:13;text-anchor:end;" transform="matrix(1 0 0 1 3036 1951)">Requires Xcode 13 or greater</text>
        <text id="descriptive-name" style="stroke:none;fill:black;font-family:sans-serif;font-size:13;text-anchor:end;" transform="matrix(1 0 0 1 3036 1969)">Generated from custom.pencil.circle</text>
        <text style="stroke:none;fill:black;font-family:sans-serif;font-size:13;text-anchor:end;" transform="matrix(1 0 0 1 3036 1987)">Typeset at 100 points</text>
        <text style="stroke:none;fill:black;font-family:sans-serif;font-size:13;" transform="matrix(1 0 0 1 263 726)">Small</text>
        <text style="stroke:none;fill:black;font-family:sans-serif;font-size:13;" transform="matrix(1 0 0 1 263 1156)">Medium</text>
        <text style="stroke:none;fill:black;font-family:sans-serif;font-size:13;" transform="matrix(1 0 0 1 263 1586)">Large</text>
    </g>
    <g id="Guides">
        <g id="H-reference" style="fill:#27AAE1;stroke:none;" transform="matrix(1 0 0 1 339 696)">
            <path d="M0.976562 0L3.66211 0L29.3457-67.1387L30.0293-67.1387L30.0293-70.459L28.125-70.459ZM11.6699-24.4629L46.9727-24.4629L46.2402-26.709L12.4512-26.709ZM55.127 0L57.7637 0L30.6152-70.459L29.4434-70.459L29.4434-67.1387Z"></path>
        </g>
        <line id="Baseline-S" style="fill:none;stroke:#27AAE1;opacity:1;stroke-width:0.5;" x1="263" x2="3036" y1="696" y2="696"></line>
        <line id="Capline-S" style="fill:none;stroke:#27AAE1;opacity:1;stroke-width:0.5;" x1="263" x2="3036" y1="625.541" y2="625.541"></line>
        <g id="H-reference" style="fill:#27AAE1;stroke:none;" transform="matrix(1 0 0 1 339 1126)">
            <path d="M0.976562 0L3.66211 0L29.3457-67.1387L30.0293-67.1387L30.0293-70.459L28.125-70.459ZM11.6699-24.4629L46.9727-24.4629L46.2402-26.709L12.4512-26.709ZM55.127 0L57.7637 0L30.6152-70.459L29.4434-70.459L29.4434-67.1387Z"></path>
        </g>
        <line id="Baseline-M" style="fill:none;stroke:#27AAE1;opacity:1;stroke-width:0.5;" x1="263" x2="3036" y1="1126" y2="1126"></line>
        <line id="Capline-M" style="fill:none;stroke:#27AAE1;opacity:1;stroke-width:0.5;" x1="263" x2="3036" y1="1055.54" y2="1055.54"></line>
        <g id="H-reference" style="fill:#27AAE1;stroke:none;" transform="matrix(1 0 0 1 339 1556)">
            <path d="M0.976562 0L3.66211 0L29.3457-67.1387L30.0293-67.1387L30.0293-70.459L28.125-70.459ZM11.6699-24.4629L46.9727-24.4629L46.2402-26.709L12.4512-26.709ZM55.127 0L57.7637 0L30.6152-70.459L29.4434-70.459L29.4434-67.1387Z"></path>
        </g>
        <line id="Baseline-L" style="fill:none;stroke:#27AAE1;opacity:1;stroke-width:0.5;" x1="263" x2="3036" y1="1556" y2="1556"></line>
        <line id="Capline-L" style="fill:none;stroke:#27AAE1;opacity:1;stroke-width:0.5;" x1="263" x2="3036" y1="1485.54" y2="1485.54"></line>
        <line id="left-margin-Ultralight-S" style="fill:none;stroke:#00AEEF;stroke-width:0.5;opacity:1.0;" x1="511.933020439148" x2="511.933020439148" y1="600.784" y2="720.121"></line>
        <line id="right-margin-Ultralight-S" style="fill:none;stroke:#00AEEF;stroke-width:0.5;opacity:1.0;" x1="607.4889766311645" x2="607.4889766311645" y1="600.784" y2="720.121"></line>
        <line id="left-margin-Regular-S" style="fill:none;stroke:#00AEEF;stroke-width:0.5;opacity:1.0;" x1="1398.1747043991088" x2="1398.1747043991088" y1="600.784" y2="720.121"></line>
        <line id="right-margin-Regular-S" style="fill:none;stroke:#00AEEF;stroke-width:0.5;opacity:1.0;" x1="1501.5152370071412" x2="1501.5152370071412" y1="600.784" y2="720.121"></line>
        <line id="left-margin-Black-S" style="fill:none;stroke:#00AEEF;stroke-width:0.5;opacity:1.0;" x1="2873.9003582000732" x2="2873.9003582000732" y1="600.784" y2="720.121"></line>
        <line id="right-margin-Black-S" style="fill:none;stroke:#00AEEF;stroke-width:0.5;opacity:1.0;" x1="2992.8996906280518" x2="2992.8996906280518" y1="600.784" y2="720.121"></line>
    </g>
<g id="Symbols"><g id="Ultralight-S" transform="matrix(1,0,0,1,504.96099853515625,606.0205078125)"><path d="M47.88216 84.66102000000001c0.39638999999999996 0.42048 0.39638999999999996 1.07748 0 1.50015C47.65878 86.39769 42.332699999999996 91.98 35.5875 91.98c-6.64665 0-11.90484-5.4093-12.27057-5.79693C22.9293 85.81734 17.52 80.55914999999999 17.52 73.9125c0-6.7452 5.58231-12.071279999999998 5.82102-12.294659999999999 0.42048-0.39638999999999996 1.07748-0.39638999999999996 1.50015 0C25.07769 61.84122 30.66 67.1673 30.66 73.9125c0 2.45718-0.7446 4.72164-1.69725 6.62475C30.865859999999998 79.58460000000001 33.13032 78.84 35.5875 78.84 42.332699999999996 78.84 47.65878 84.42231 47.88216 84.66102000000001z"></path><path d="M61.02216 71.52102000000001c0.39638999999999996 0.42048 0.39638999999999996 1.07748 0 1.50015C60.79878 73.25769 55.472699999999996 78.84 48.7275 78.84c-6.64665 0-11.90484-5.4093-12.27057-5.79693C36.0693 72.67734 30.66 67.41915 30.66 60.7725c0-6.7452 5.58231-12.071279999999998 5.82102-12.294659999999999 0.42048-0.39638999999999996 1.07748-0.39638999999999996 1.50015 0C38.21769 48.70122 43.8 54.027300000000004 43.8 60.7725c0 2.45718-0.7446 4.72164-1.69725 6.62475C44.00586 66.4446 46.27032 65.7 48.7275 65.7 55.472699999999996 65.7 60.79878 71.28231 61.02216 71.52102000000001z"></path><path d="M74.16215999999999 58.38102c0.39638999999999996 0.42048 0.39638999999999996 1.07748 0 1.50015C73.93878 60.11769 68.61269999999999 65.7 61.8675 65.7c-6.64665 0-11.90484-5.4093-12.27057-5.79693C49.2093 59.53734 43.8 54.27915 43.8 47.6325c0-6.7452 5.58231-12.071279999999998 5.82102-12.294659999999999 0.42048-0.39638999999999996 1.07748-0.39638999999999996 1.50015 0C51.35769 35.56122 56.94 40.8873 56.94 47.6325c0 2.45718-0.7446 4.72164-1.69725 6.62475C57.14586 53.3046 59.41032 52.56 61.8675 52.56 68.61269999999999 52.56 73.93878 58.142309999999995 74.16215999999999 58.38102z"></path><path d="M87.30215999999999 45.24102c0.39638999999999996 0.42048 0.39638999999999996 1.07748 0 1.50015C87.07878 46.97769 81.75269999999999 52.56 75.0075 52.56c-6.64665 0-11.90484-5.4093-12.27057-5.79693C62.3493 46.39734 56.94 41.13915 56.94 34.4925c0-6.7452 5.58231-12.071279999999998 5.82102-12.294659999999999 0.42048-0.39638999999999996 1.07748-0.39638999999999996 1.50015 0C64.49769 22.421219999999998 70.08 27.7473 70.08 34.4925c0 2.45718-0.7446 4.72164-1.69725 6.62475C70.28586 40.1646 72.55032 39.42 75.0075 39.42 81.75269999999999 39.42 87.07878 45.002309999999994 87.30215999999999 45.24102z"></path><path d="M91.0164 17.52657c0.50151 0.06132 0.8957099999999999 0.45552 0.9570299999999999 0.9570299999999999 0.04161 0.33945 0.95922 8.39427-3.59817 12.951659999999999-3.56532 3.56532-9.65571 3.97923-12.951659999999999 3.59817-0.50151-0.06132-0.8957099999999999-0.45552-0.9570299999999999-0.9570299999999999-0.04161-0.33945-0.95922-8.39427 3.59817-12.951659999999999C82.62432 16.56735 90.67476 17.48496 91.0164 17.52657z"></path></g><g id="Regular-S" transform="matrix(1,0,0,1,1392.564970703125,603.4905078125)"><path d="M51.35689 89.99762c0.64082 0.6121800000000001 0.82877 1.79358 0 2.58476C51.10808 92.82224000000001 45.142010000000006 98.45 37.59 98.45c-5.1802600000000005 0-10.86888-2.97856-13.79016-5.89805C20.7819 89.53222000000001 17.9 83.82391 17.9 78.76c0-7.552010000000001 5.62776-13.51808 5.865830000000001-13.76689 0.67483-0.7070500000000001 1.91172-0.7070500000000001 2.5865500000000003 0C26.59224 65.24192000000001 32.22 71.20799 32.22 78.76c0 2.50242-0.6229199999999999 4.82405-1.45706 6.82885C32.765950000000004 84.75292 35.08758 84.13 37.59 84.13 45.142010000000006 84.13 51.10808 89.75776 51.35689 89.99762z"></path><path d="M65.67689 75.67762c0.64082 0.6121800000000001 0.82877 1.79358 0 2.58476C65.42808 78.50224 59.46201000000001 84.13 51.910000000000004 84.13c-5.1802600000000005 0-10.86888-2.97856-13.79016-5.89805C35.1019 75.21222 32.22 69.50391 32.22 64.44c0-7.552010000000001 5.62776-13.51808 5.865830000000001-13.76689 0.67483-0.7070500000000001 1.91172-0.7070500000000001 2.5865500000000003 0C40.912240000000004 50.92192 46.54 56.88799 46.54 64.44c0 2.50242-0.6229199999999999 4.82405-1.45706 6.82885C47.085950000000004 70.43292 49.40758 69.81 51.910000000000004 69.81 59.46201000000001 69.81 65.42808 75.43776 65.67689 75.67762z"></path><path d="M79.99689000000001 61.35762c0.64082 0.6121800000000001 0.82877 1.79358 0 2.58476C79.74808 64.18224000000001 73.78201 69.81 66.23 69.81c-5.1802600000000005 0-10.86888-2.97856-13.79016-5.89805C46.735110000000006 58.14278 46.54 50.94161 46.54 50.120000000000005c0-7.552010000000001 5.62776-13.51808 5.865830000000001-13.76689 0.67483-0.7070500000000001 1.91172-0.7070500000000001 2.5865500000000003 0C55.232240000000004 36.60192 60.86 42.56799 60.86 50.120000000000005c0 2.50242-0.6229199999999999 4.82405-1.45706 6.82885C61.405950000000004 56.11292 63.727579999999996 55.49 66.23 55.49 73.78201 55.49 79.74808 61.11776 79.99689000000001 61.35762z"></path><path d="M94.31689 47.03762c0.64082 0.6121800000000001 0.82877 1.79358 0 2.58476C94.06808 49.86224000000001 88.10201 55.49 80.55 55.49c-5.1802600000000005 0-10.86888-2.97856-13.79016-5.89805C61.055110000000006 43.82278 60.86 36.62161 60.86 35.8c0-7.552010000000001 5.62776-13.51808 5.865830000000001-13.76689 0.67483-0.7070500000000001 1.91172-0.7070500000000001 2.5865500000000003 0C69.55224 22.28192 75.18 28.24799 75.18 35.8c0 2.50242-0.6229199999999999 4.82405-1.45706 6.82885C75.72595 41.79292 78.04758 41.17 80.55 41.17 88.10201 41.17 94.06808 46.79776 94.31689 47.03762z"></path><path d="M98.40167 16.11c1.12412-0.03401 1.8616000000000001 0.9021600000000001 1.8383299999999998 1.83654-0.010740000000000001 0.34726-0.29177000000000003 8.57947-5.67788 13.963790000000001C90.83534 35.640690000000006 84.61151 37.59 80.55 37.59c-1.0041900000000001 0-1.8150600000000001-0.82698-1.79-1.8383299999999998 0.010740000000000001-0.34726 0.29177000000000003-8.57947 5.67788-13.963790000000001C89.8222 16.40177 98.05441 16.11895 98.40167 16.11z"></path></g><g id="Black-S" transform="matrix(1,0,0,1,2870.4000244140625,597.7705078125)"><path d="M49.670249999999996 98.97125c1.2565 1.20225 1.6187500000000001 3.50875 0 5.0575C49.404250000000005 104.2825 43.078 110.25 35 110.25c-7.343 0-13.42075-4.98925-14.722750000000001-6.2825C19.72775 103.4075 14 97.17399999999999 14 89.25c0-8.078 5.9675-14.40425 6.223-14.67025 1.3195000000000001-1.3807500000000001 3.7362499999999996-1.3807500000000001 5.05575 0C25.5325 74.84575 31.5 81.172 31.5 89.25c0 1.3860000000000001-0.1855 2.716-0.47775 3.9777500000000003C32.284 92.9355 33.614 92.75 35 92.75 43.078 92.75 49.404250000000005 98.7175 49.670249999999996 98.97125z"></path><path d="M67.17025000000001 81.47125c1.2565 1.20225 1.6187500000000001 3.50875 0 5.0575C66.90425 86.7825 60.578 92.75 52.5 92.75c-7.343 0-13.42075-4.98925-14.722750000000001-6.2825C37.22775 85.9075 31.5 79.67399999999999 31.5 71.75c0-8.078 5.9675-14.40425 6.223-14.67025 1.3195000000000001-1.3807500000000001 3.7362499999999996-1.3807500000000001 5.05575 0C43.0325 57.345749999999995 49 63.672 49 71.75c0 1.3860000000000001-0.1855 2.716-0.47775 3.9777500000000003C49.784 75.4355 51.114 75.25 52.5 75.25 60.578 75.25 66.90425 81.2175 67.17025000000001 81.47125z"></path><path d="M84.67025000000001 63.97125c1.2565 1.20225 1.6187500000000001 3.50875 0 5.0575C84.40425 69.2825 78.078 75.25 70 75.25c-7.343 0-13.42075-4.98925-14.722750000000001-6.2825C54.72775 68.4075 49 62.174 49 54.25c0-8.078 5.9675-14.40425 6.223-14.67025 1.3195000000000001-1.3807500000000001 3.7362499999999996-1.3807500000000001 5.05575 0C60.532500000000006 39.845749999999995 66.5 46.172 66.5 54.25c0 1.3860000000000001-0.1855 2.716-0.47775 3.9777500000000003C67.284 57.935500000000005 68.614 57.75 70 57.75 78.078 57.75 84.40425 63.717499999999994 84.67025000000001 63.97125z"></path><path d="M102.17025000000001 46.47125c1.2565 1.20225 1.6187500000000001 3.50875 0 5.0575C101.90425 51.7825 95.578 57.75 87.5 57.75c-7.343 0-13.42075-4.98925-14.722750000000001-6.2825C72.22775 50.9075 66.5 44.674 66.5 36.75c0-8.078 5.9675-14.40425 6.223-14.67025 1.3195000000000001-1.3807500000000001 3.7362499999999996-1.3807500000000001 5.05575 0C78.0325 22.34575 84 28.672 84 36.75c0 1.3860000000000001-0.1855 2.716-0.47775 3.9777500000000003C84.784 40.435500000000005 86.114 40.25 87.5 40.25 95.578 40.25 101.90425 46.2175 102.17025000000001 46.47125z"></path><path d="M108.40549999999999 12.25c2.24875-0.059500000000000004 3.63825 1.84625 3.5927499999999997 3.5927499999999997-0.0105 0.3675-0.30974999999999997 9.0895-6.062 14.84175C100.72825 35.89775 92.83224999999999 36.75 91 36.75c-1.96525 0-3.55075-1.6222500000000002-3.49825-3.5944999999999996 0.0105-0.3675 0.308-9.09125 6.062-14.843499999999999C99.31425 12.55975 108.03625 12.2605 108.40549999999999 12.25z"></path></g></g></svg>