<svg version="1.1" xmlns="http://www.w3.org/2000/svg" xmlns:xlink="http://www.w3.org/1999/xlink" width="3300" height="2200" viewBox="0 0 3300 2200">
    <g id="Notes">
        <rect height="2200" id="artboard" style="fill:white;opacity:1" width="3300" x="0" y="0"></rect>
        <line style="fill:none;stroke:black;opacity:1;stroke-width:0.5;" x1="263" x2="3036" y1="292" y2="292"></line>
        <text style="stroke:none;fill:black;font-family:sans-serif;font-size:13;font-weight:bold;" transform="matrix(1 0 0 1 263 322)">Weight/Scale Variations</text>
        <text style="stroke:none;fill:black;font-family:sans-serif;font-size:13;text-anchor:middle;" transform="matrix(1 0 0 1 559.711 322)">Ultralight</text>
        <text style="stroke:none;fill:black;font-family:sans-serif;font-size:13;text-anchor:middle;" transform="matrix(1 0 0 1 856.422 322)">Thin</text>
        <text style="stroke:none;fill:black;font-family:sans-serif;font-size:13;text-anchor:middle;" transform="matrix(1 0 0 1 1153.13 322)">Light</text>
        <text style="stroke:none;fill:black;font-family:sans-serif;font-size:13;text-anchor:middle;" transform="matrix(1 0 0 1 1449.84 322)">Regular</text>
        <text style="stroke:none;fill:black;font-family:sans-serif;font-size:13;text-anchor:middle;" transform="matrix(1 0 0 1 1746.56 322)">Medium</text>
        <text style="stroke:none;fill:black;font-family:sans-serif;font-size:13;text-anchor:middle;" transform="matrix(1 0 0 1 2043.27 322)">Semibold</text>
        <text style="stroke:none;fill:black;font-family:sans-serif;font-size:13;text-anchor:middle;" transform="matrix(1 0 0 1 2339.98 322)">Bold</text>
        <text style="stroke:none;fill:black;font-family:sans-serif;font-size:13;text-anchor:middle;" transform="matrix(1 0 0 1 2636.69 322)">Heavy</text>
        <text style="stroke:none;fill:black;font-family:sans-serif;font-size:13;text-anchor:middle;" transform="matrix(1 0 0 1 2933.4 322)">Black</text>
        <line style="fill:none;stroke:black;opacity:1;stroke-width:0.5;" x1="263" x2="3036" y1="1903" y2="1903"></line>
        <g transform="matrix(1 0 0 1 263 1933)">
            <path d="M9.24805 0.830078Q10.8691 0.830078 12.2949 0.214844Q13.7207-0.400391 14.8096-1.49414Q15.8984-2.58789 16.5186-4.01367Q17.1387-5.43945 17.1387-7.05078Q17.1387-8.66211 16.5186-10.0879Q15.8984-11.5137 14.8047-12.6074Q13.7109-13.7012 12.2852-14.3164Q10.8594-14.9316 9.23828-14.9316Q7.62695-14.9316 6.20117-14.3164Q4.77539-13.7012 3.69141-12.6074Q2.60742-11.5137 1.9873-10.0879Q1.36719-8.66211 1.36719-7.05078Q1.36719-5.43945 1.9873-4.01367Q2.60742-2.58789 3.69629-1.49414Q4.78516-0.400391 6.21094 0.214844Q7.63672 0.830078 9.24805 0.830078ZM9.24805-0.654297Q7.91992-0.654297 6.7627-1.14746Q5.60547-1.64062 4.73145-2.51953Q3.85742-3.39844 3.36426-4.56055Q2.87109-5.72266 2.87109-7.05078Q2.87109-8.37891 3.35938-9.54102Q3.84766-10.7031 4.72168-11.582Q5.5957-12.4609 6.75293-12.9541Q7.91016-13.4473 9.23828-13.4473Q10.5762-13.4473 11.7334-12.9541Q12.8906-12.4609 13.7695-11.582Q14.6484-10.7031 15.1465-9.54102Q15.6445-8.37891 15.6445-7.05078Q15.6445-5.72266 15.1514-4.56055Q14.6582-3.39844 13.7842-2.51953Q12.9102-1.64062 11.748-1.14746Q10.5859-0.654297 9.24805-0.654297ZM5.83984-7.04102Q5.83984-6.71875 6.04492-6.51855Q6.25-6.31836 6.5918-6.31836L8.50586-6.31836L8.50586-4.39453Q8.50586-4.0625 8.70605-3.85742Q8.90625-3.65234 9.22852-3.65234Q9.56055-3.65234 9.76562-3.85742Q9.9707-4.0625 9.9707-4.39453L9.9707-6.31836L11.8945-6.31836Q12.2266-6.31836 12.4316-6.51855Q12.6367-6.71875 12.6367-7.04102Q12.6367-7.37305 12.4316-7.57812Q12.2266-7.7832 11.8945-7.7832L9.9707-7.7832L9.9707-9.69727Q9.9707-10.0391 9.76562-10.2441Q9.56055-10.4492 9.22852-10.4492Q8.90625-10.4492 8.70605-10.2441Q8.50586-10.0391 8.50586-9.69727L8.50586-7.7832L6.5918-7.7832Q6.25-7.7832 6.04492-7.57812Q5.83984-7.37305 5.83984-7.04102Z"></path>
        </g>
        <g transform="matrix(1 0 0 1 281.867 1933)">
            <path d="M11.709 2.91016Q13.75 2.91016 15.5518 2.12891Q17.3535 1.34766 18.7305-0.0292969Q20.1074-1.40625 20.8887-3.20801Q21.6699-5.00977 21.6699-7.05078Q21.6699-9.0918 20.8887-10.8936Q20.1074-12.6953 18.7305-14.0723Q17.3535-15.4492 15.5469-16.2305Q13.7402-17.0117 11.6992-17.0117Q9.6582-17.0117 7.85645-16.2305Q6.05469-15.4492 4.68262-14.0723Q3.31055-12.6953 2.5293-10.8936Q1.74805-9.0918 1.74805-7.05078Q1.74805-5.00977 2.5293-3.20801Q3.31055-1.40625 4.6875-0.0292969Q6.06445 1.34766 7.86621 2.12891Q9.66797 2.91016 11.709 2.91016ZM11.709 1.25Q9.98047 1.25 8.47656 0.605469Q6.97266-0.0390625 5.83496-1.17676Q4.69727-2.31445 4.05762-3.81836Q3.41797-5.32227 3.41797-7.05078Q3.41797-8.7793 4.05762-10.2832Q4.69727-11.7871 5.83008-12.9297Q6.96289-14.0723 8.4668-14.7119Q9.9707-15.3516 11.6992-15.3516Q13.4277-15.3516 14.9316-14.7119Q16.4355-14.0723 17.5781-12.9297Q18.7207-11.7871 19.3652-10.2832Q20.0098-8.7793 20.0098-7.05078Q20.0098-5.32227 19.3701-3.81836Q18.7305-2.31445 17.5928-1.17676Q16.4551-0.0390625 14.9463 0.605469Q13.4375 1.25 11.709 1.25ZM7.39258-7.04102Q7.39258-6.68945 7.62695-6.46484Q7.86133-6.24023 8.23242-6.24023L10.8789-6.24023L10.8789-3.57422Q10.8789-3.21289 11.1035-2.9834Q11.3281-2.75391 11.6797-2.75391Q12.0508-2.75391 12.2852-2.9834Q12.5195-3.21289 12.5195-3.57422L12.5195-6.24023L15.1758-6.24023Q15.5371-6.24023 15.7715-6.46484Q16.0059-6.68945 16.0059-7.04102Q16.0059-7.41211 15.7715-7.6416Q15.5371-7.87109 15.1758-7.87109L12.5195-7.87109L12.5195-10.5176Q12.5195-10.8984 12.2852-11.1279Q12.0508-11.3574 11.6797-11.3574Q11.3281-11.3574 11.1035-11.1279Q10.8789-10.8984 10.8789-10.5176L10.8789-7.87109L8.23242-7.87109Q7.85156-7.87109 7.62207-7.6416Q7.39258-7.41211 7.39258-7.04102Z"></path>
        </g>
        <g transform="matrix(1 0 0 1 305.646 1933)">
            <path d="M14.9707 5.66406Q17.0605 5.66406 18.96 5.01465Q20.8594 4.36523 22.4512 3.19336Q24.043 2.02148 25.2197 0.429688Q26.3965-1.16211 27.0459-3.06641Q27.6953-4.9707 27.6953-7.05078Q27.6953-9.14062 27.0459-11.04Q26.3965-12.9395 25.2197-14.5312Q24.043-16.123 22.4512-17.2998Q20.8594-18.4766 18.9551-19.126Q17.0508-19.7754 14.9609-19.7754Q12.8711-19.7754 10.9717-19.126Q9.07227-18.4766 7.48535-17.2998Q5.89844-16.123 4.72168-14.5312Q3.54492-12.9395 2.90039-11.04Q2.25586-9.14062 2.25586-7.05078Q2.25586-4.9707 2.90527-3.06641Q3.55469-1.16211 4.72656 0.429688Q5.89844 2.02148 7.49023 3.19336Q9.08203 4.36523 10.9814 5.01465Q12.8809 5.66406 14.9707 5.66406ZM14.9707 3.84766Q13.1641 3.84766 11.5283 3.2959Q9.89258 2.74414 8.53516 1.74805Q7.17773 0.751953 6.17676-0.610352Q5.17578-1.97266 4.62891-3.6084Q4.08203-5.24414 4.08203-7.05078Q4.08203-8.86719 4.62891-10.5029Q5.17578-12.1387 6.17188-13.501Q7.16797-14.8633 8.52539-15.8594Q9.88281-16.8555 11.5186-17.4023Q13.1543-17.9492 14.9609-17.9492Q16.7773-17.9492 18.4131-17.4023Q20.0488-16.8555 21.4111-15.8594Q22.7734-14.8633 23.7695-13.501Q24.7656-12.1387 25.3174-10.5029Q25.8691-8.86719 25.8691-7.05078Q25.8789-5.24414 25.332-3.6084Q24.7852-1.97266 23.7842-0.610352Q22.7832 0.751953 21.4209 1.74805Q20.0586 2.74414 18.4229 3.2959Q16.7871 3.84766 14.9707 3.84766ZM9.45312-7.04102Q9.45312-6.66016 9.71191-6.41113Q9.9707-6.16211 10.3711-6.16211L14.0625-6.16211L14.0625-2.46094Q14.0625-2.06055 14.3115-1.80664Q14.5605-1.55273 14.9414-1.55273Q15.3516-1.55273 15.6055-1.80664Q15.8594-2.06055 15.8594-2.46094L15.8594-6.16211L19.5605-6.16211Q19.9609-6.16211 20.2148-6.41113Q20.4688-6.66016 20.4688-7.04102Q20.4688-7.45117 20.2148-7.70508Q19.9609-7.95898 19.5605-7.95898L15.8594-7.95898L15.8594-11.6504Q15.8594-12.0605 15.6055-12.3145Q15.3516-12.5684 14.9414-12.5684Q14.5605-12.5684 14.3115-12.3096Q14.0625-12.0508 14.0625-11.6504L14.0625-7.95898L10.3711-7.95898Q9.96094-7.95898 9.70703-7.70508Q9.45312-7.45117 9.45312-7.04102Z"></path>
        </g>
        <text style="stroke:none;fill:black;font-family:sans-serif;font-size:13;font-weight:bold;" transform="matrix(1 0 0 1 263 1953)">Design Variations</text>
        <text style="stroke:none;fill:black;font-family:sans-serif;font-size:13;" transform="matrix(1 0 0 1 263 1971)">Symbols are supported in up to nine weights and three scales.</text>
        <text style="stroke:none;fill:black;font-family:sans-serif;font-size:13;" transform="matrix(1 0 0 1 263 1989)">For optimal layout with text and other symbols, vertically align</text>
        <text style="stroke:none;fill:black;font-family:sans-serif;font-size:13;" transform="matrix(1 0 0 1 263 2007)">symbols with the adjacent text.</text>
        <line style="fill:none;stroke:#00AEEF;stroke-width:0.5;opacity:1.0;" x1="776" x2="776" y1="1919" y2="1933"></line>
        <g transform="matrix(1 0 0 1 776 1933)">
            <path d="M3.31055 0.15625Q3.70117 0.15625 3.91602-0.00976562Q4.13086-0.175781 4.26758-0.585938L5.52734-4.0332L11.2891-4.0332L12.5488-0.585938Q12.6855-0.175781 12.9004-0.00976562Q13.1152 0.15625 13.4961 0.15625Q13.8867 0.15625 14.1162-0.0585938Q14.3457-0.273438 14.3457-0.644531Q14.3457-0.869141 14.2383-1.17188L9.6582-13.3691Q9.48242-13.8184 9.17969-14.043Q8.87695-14.2676 8.4082-14.2676Q7.5-14.2676 7.17773-13.3789L2.59766-1.16211Q2.49023-0.859375 2.49023-0.634766Q2.49023-0.263672 2.70996-0.0537109Q2.92969 0.15625 3.31055 0.15625ZM6.00586-5.51758L8.37891-12.0898L8.42773-12.0898L10.8008-5.51758Z"></path>
        </g>
        <line style="fill:none;stroke:#00AEEF;stroke-width:0.5;opacity:1.0;" x1="793.197" x2="793.197" y1="1919" y2="1933"></line>
        <text style="stroke:none;fill:black;font-family:sans-serif;font-size:13;font-weight:bold;" transform="matrix(1 0 0 1 776 1953)">Margins</text>
        <text style="stroke:none;fill:black;font-family:sans-serif;font-size:13;" transform="matrix(1 0 0 1 776 1971)">Leading and trailing margins on the left and right side of each symbol</text>
        <text style="stroke:none;fill:black;font-family:sans-serif;font-size:13;" transform="matrix(1 0 0 1 776 1989)">can be adjusted by modifying the x-location of the margin guidelines.</text>
        <text style="stroke:none;fill:black;font-family:sans-serif;font-size:13;" transform="matrix(1 0 0 1 776 2007)">Modifications are automatically applied proportionally to all</text>
        <text style="stroke:none;fill:black;font-family:sans-serif;font-size:13;" transform="matrix(1 0 0 1 776 2025)">scales and weights.</text>
        <g transform="matrix(1 0 0 1 1289 1933)">
            <path d="M2.8418 1.86523L4.54102 3.57422Q5.18555 4.22852 5.90332 4.17969Q6.62109 4.13086 7.31445 3.35938L18.0078-8.42773L17.041-9.4043L6.42578 2.27539Q6.16211 2.57812 5.89355 2.61719Q5.625 2.65625 5.27344 2.30469L4.10156 1.14258Q3.75 0.791016 3.79395 0.522461Q3.83789 0.253906 4.14062-0.0195312L15.6152-10.8203L14.6387-11.7871L3.04688-0.898438Q2.30469-0.214844 2.25098 0.498047Q2.19727 1.21094 2.8418 1.86523ZM9.25781-16.3281Q8.94531-16.0254 8.90625-15.6348Q8.86719-15.2441 9.04297-14.9512Q9.21875-14.6777 9.55566-14.541Q9.89258-14.4043 10.3809-14.5215Q11.4746-14.7754 12.5977-14.7314Q13.7207-14.6875 14.7949-13.9844L14.209-12.5293Q13.9551-11.9043 14.0674-11.4404Q14.1797-10.9766 14.5801-10.5664L16.875-8.25195Q17.2363-7.88086 17.5781-7.82227Q17.9199-7.76367 18.3398-7.8418L19.4043-8.03711L20.0684-7.36328L20.0293-6.80664Q20-6.43555 20.1221-6.12305Q20.2441-5.81055 20.6055-5.44922L21.3672-4.70703Q21.7285-4.3457 22.1533-4.33105Q22.5781-4.31641 22.9297-4.66797L25.8398-7.58789Q26.1914-7.93945 26.1816-8.35449Q26.1719-8.76953 25.8105-9.13086L25.0391-9.89258Q24.6875-10.2539 24.3799-10.3857Q24.0723-10.5176 23.7109-10.4883L23.1348-10.4395L22.4902-11.0742L22.7344-12.1973Q22.832-12.6172 22.6953-12.9834Q22.5586-13.3496 22.1191-13.7891L19.9219-15.9766Q18.6719-17.2168 17.2607-17.8369Q15.8496-18.457 14.4189-18.4814Q12.9883-18.5059 11.665-17.959Q10.3418-17.4121 9.25781-16.3281ZM10.752-15.957Q11.6602-16.6211 12.7002-16.9043Q13.7402-17.1875 14.8047-17.085Q15.8691-16.9824 16.8701-16.5137Q17.8711-16.0449 18.7012-15.2051L21.1328-12.793Q21.3086-12.6172 21.3525-12.4512Q21.3965-12.2852 21.3379-12.0312L21.0156-10.5469L22.5195-9.0625L23.5059-9.12109Q23.6914-9.13086 23.7891-9.09668Q23.8867-9.0625 24.0332-8.91602L24.6094-8.33984L22.168-5.89844L21.5918-6.47461Q21.4453-6.62109 21.4062-6.71875Q21.3672-6.81641 21.377-7.01172L21.4453-7.98828L19.9512-9.47266L18.4277-9.21875Q18.1836-9.16992 18.042-9.2041Q17.9004-9.23828 17.7148-9.41406L15.7129-11.416Q15.5176-11.5918 15.4932-11.7529Q15.4688-11.9141 15.5859-12.1875L16.4648-14.2773Q15.293-15.3711 13.8281-15.791Q12.3633-16.2109 10.8398-15.7617Q10.7227-15.7324 10.6885-15.8057Q10.6543-15.8789 10.752-15.957Z"></path>
        </g>
        <text style="stroke:none;fill:black;font-family:sans-serif;font-size:13;font-weight:bold;" transform="matrix(1 0 0 1 1289 1953)">Exporting</text>
        <text style="stroke:none;fill:black;font-family:sans-serif;font-size:13;" transform="matrix(1 0 0 1 1289 1971)">Symbols should be outlined when exporting to ensure the</text>
        <text style="stroke:none;fill:black;font-family:sans-serif;font-size:13;" transform="matrix(1 0 0 1 1289 1989)">design is preserved when submitting to Xcode.</text>
        <text id="template-version" style="stroke:none;fill:black;font-family:sans-serif;font-size:13;text-anchor:end;" transform="matrix(1 0 0 1 3036 1933)">Template v.3.0</text>
        <text style="stroke:none;fill:black;font-family:sans-serif;font-size:13;text-anchor:end;" transform="matrix(1 0 0 1 3036 1951)">Requires Xcode 13 or greater</text>
        <text id="descriptive-name" style="stroke:none;fill:black;font-family:sans-serif;font-size:13;text-anchor:end;" transform="matrix(1 0 0 1 3036 1969)">Generated from custom.pencil.circle</text>
        <text style="stroke:none;fill:black;font-family:sans-serif;font-size:13;text-anchor:end;" transform="matrix(1 0 0 1 3036 1987)">Typeset at 100 points</text>
        <text style="stroke:none;fill:black;font-family:sans-serif;font-size:13;" transform="matrix(1 0 0 1 263 726)">Small</text>
        <text style="stroke:none;fill:black;font-family:sans-serif;font-size:13;" transform="matrix(1 0 0 1 263 1156)">Medium</text>
        <text style="stroke:none;fill:black;font-family:sans-serif;font-size:13;" transform="matrix(1 0 0 1 263 1586)">Large</text>
    </g>
    <g id="Guides">
        <g id="H-reference" style="fill:#27AAE1;stroke:none;" transform="matrix(1 0 0 1 339 696)">
            <path d="M0.976562 0L3.66211 0L29.3457-67.1387L30.0293-67.1387L30.0293-70.459L28.125-70.459ZM11.6699-24.4629L46.9727-24.4629L46.2402-26.709L12.4512-26.709ZM55.127 0L57.7637 0L30.6152-70.459L29.4434-70.459L29.4434-67.1387Z"></path>
        </g>
        <line id="Baseline-S" style="fill:none;stroke:#27AAE1;opacity:1;stroke-width:0.5;" x1="263" x2="3036" y1="696" y2="696"></line>
        <line id="Capline-S" style="fill:none;stroke:#27AAE1;opacity:1;stroke-width:0.5;" x1="263" x2="3036" y1="625.541" y2="625.541"></line>
        <g id="H-reference" style="fill:#27AAE1;stroke:none;" transform="matrix(1 0 0 1 339 1126)">
            <path d="M0.976562 0L3.66211 0L29.3457-67.1387L30.0293-67.1387L30.0293-70.459L28.125-70.459ZM11.6699-24.4629L46.9727-24.4629L46.2402-26.709L12.4512-26.709ZM55.127 0L57.7637 0L30.6152-70.459L29.4434-70.459L29.4434-67.1387Z"></path>
        </g>
        <line id="Baseline-M" style="fill:none;stroke:#27AAE1;opacity:1;stroke-width:0.5;" x1="263" x2="3036" y1="1126" y2="1126"></line>
        <line id="Capline-M" style="fill:none;stroke:#27AAE1;opacity:1;stroke-width:0.5;" x1="263" x2="3036" y1="1055.54" y2="1055.54"></line>
        <g id="H-reference" style="fill:#27AAE1;stroke:none;" transform="matrix(1 0 0 1 339 1556)">
            <path d="M0.976562 0L3.66211 0L29.3457-67.1387L30.0293-67.1387L30.0293-70.459L28.125-70.459ZM11.6699-24.4629L46.9727-24.4629L46.2402-26.709L12.4512-26.709ZM55.127 0L57.7637 0L30.6152-70.459L29.4434-70.459L29.4434-67.1387Z"></path>
        </g>
        <line id="Baseline-L" style="fill:none;stroke:#27AAE1;opacity:1;stroke-width:0.5;" x1="263" x2="3036" y1="1556" y2="1556"></line>
        <line id="Capline-L" style="fill:none;stroke:#27AAE1;opacity:1;stroke-width:0.5;" x1="263" x2="3036" y1="1485.54" y2="1485.54"></line>
        <line id="left-margin-Ultralight-S" style="fill:none;stroke:#00AEEF;stroke-width:0.5;opacity:1.0;" x1="507.60099853515624" x2="507.60099853515624" y1="600.784" y2="720.121"></line>
        <line id="right-margin-Ultralight-S" style="fill:none;stroke:#00AEEF;stroke-width:0.5;opacity:1.0;" x1="611.8209985351563" x2="611.8209985351563" y1="600.784" y2="720.121"></line>
        <line id="left-margin-Regular-S" style="fill:none;stroke:#00AEEF;stroke-width:0.5;opacity:1.0;" x1="1396.384970703125" x2="1396.384970703125" y1="600.784" y2="720.121"></line>
        <line id="right-margin-Regular-S" style="fill:none;stroke:#00AEEF;stroke-width:0.5;opacity:1.0;" x1="1503.304970703125" x2="1503.304970703125" y1="600.784" y2="720.121"></line>
        <line id="left-margin-Black-S" style="fill:none;stroke:#00AEEF;stroke-width:0.5;opacity:1.0;" x1="2875.631649494171" x2="2875.631649494171" y1="600.784" y2="720.121"></line>
        <line id="right-margin-Black-S" style="fill:none;stroke:#00AEEF;stroke-width:0.5;opacity:1.0;" x1="2991.168399333954" x2="2991.168399333954" y1="600.784" y2="720.121"></line>
    </g>
<g id="Symbols"><g id="Ultralight-S" transform="matrix(1,0,0,1,504.96099853515625,606.0205078125)"><path d="M60.225 83.22c-0.07227 0-0.14235-0.00657-0.21681-0.0219-0.5934900000000001-0.11825999999999999-0.9767399999999999-0.69423-0.85848-1.28772 1.095-5.475 3.27624-16.42938 4.38-21.902189999999997 0.12045-0.5934900000000001 0.7008-0.98112 1.28991-0.85629 0.5934900000000001 0.12045 0.9767399999999999 0.69861 0.85629 1.28991-1.10157 5.47281-3.28719 16.42281-4.38 21.89781C61.195170000000005 82.86084 60.737460000000006 83.22 60.225 83.22z"></path><path d="M49.275 83.22c-0.51027 0-0.96798-0.35916-1.0731-0.88038-1.3139999999999998-6.56781-2.98497-13.805760000000001-3.86535-17.537519999999997-0.13797-0.58911 0.22776-1.17822 0.81468-1.3183799999999999 0.5825400000000001-0.13577999999999998 1.17822 0.22557 1.3183799999999999 0.81468 0.8825700000000001 3.7449 2.56011 11.01132 3.8784899999999998 17.60979 0.11825999999999999 0.5934900000000001-0.26718 1.16946-0.85848 1.28772C49.41735 83.21343 49.345079999999996 83.22 49.275 83.22z"></path><path d="M64.51083 94.17h-19.521659999999997c-2.24256 0-4.15005-1.5198599999999998-4.640610000000001-3.69453-1.08186-4.791720000000001-6.3794699999999995-20.940779999999997-16.21257-31.93458l1.63155-1.46073c10.144079999999999 11.33982 15.60375 27.97725 16.71846 32.91351C42.748799999999996 91.16313000000001 43.778099999999995 91.98 44.989169999999994 91.98h19.521659999999997c1.21107 0 2.2403699999999995-0.81687 2.50317-1.98633 1.11033-4.920929999999999 6.55467-21.51894 16.670279999999998-32.86095l1.63374 1.45854c-9.80901 10.995989999999999-15.091289999999999 27.10563-16.16877 31.884209999999996C68.66088 92.65014 66.75339 94.17 64.51083 94.17z"></path><path d="M80.4168 30.76512C88.97970000000001 29.71611 96.36 36.48321 96.36 44.894999999999996c0 7.84896-6.3860399999999995 14.235-14.235 14.235-2.50974 0-4.947209999999999-0.65481-7.10655-1.9031099999999999C72.17364 59.872409999999995 68.50977 61.32 64.605 61.32c-2.89956 0-5.68743-0.8103-8.13147-2.3498699999999997-2.83824 4.17633-7.59273 6.725490000000001-12.67353 6.725490000000001-5.20125 0-10.05429-2.66961-12.86844-7.02114C29.76429 58.9767 28.570739999999997 59.129999999999995 27.375 59.129999999999995 19.526040000000002 59.129999999999995 13.14 52.74396 13.14 44.894999999999996c0-6.6707399999999994 4.5661499999999995-12.35598 10.98285-13.84737C24.582749999999997 22.21536 31.75938 15.33 40.515 15.33c6.14295 0 11.66832 3.3726 14.49999 8.7162C57.86418 21.271469999999997 61.67478 19.71 65.7 19.71 72.50871000000001 19.71 78.53778 24.30024 80.4168 30.76512zM82.125 56.94c6.64227 0 12.045-5.40273 12.045-12.045 0-7.40001-6.79776-13.28673-14.35764-11.81724-0.58035 0.11388-1.15413-0.26061-1.2789599999999999-0.84096C77.23035 26.247149999999998 71.832 21.9 65.7 21.9c-3.9354299999999998 0-7.632149999999999 1.7432400000000001-10.14189 4.78515-0.24528 0.29565-0.6263399999999999 0.438-1.00959 0.38543999999999995-0.38105999999999995-0.05694-0.70299-0.31316999999999995-0.84972-0.67014C51.506609999999995 21.00648 46.32945 17.52 40.515 17.52c-7.84896 0-14.235 6.3860399999999995-14.235 14.235 0 0.53436-0.37667999999999996 1.1869800000000001-0.9044699999999999 1.27677C19.55451 34.004129999999996 15.33 38.99514 15.33 44.894999999999996c0 6.64227 5.40273 12.045 12.045 12.045 1.25487 0 2.50755-0.19929 3.7186199999999996-0.5913 0.11168999999999998-0.03723 0.22557-0.05256 0.33726-0.05256 0.38543999999999995 0 0.7533599999999999 0.20367 0.95265 0.55407 2.3367299999999998 4.10625 6.71016 6.6575999999999995 11.41647 6.6575999999999995 4.69098 0 9.06003-2.5403999999999995 11.39895-6.626939999999999 0.41829-0.7227 1.2351599999999998-0.60882 1.60089-0.33507C59.0862 58.23429 61.784279999999995 59.129999999999995 64.605 59.129999999999995c3.60036 0 6.9642-1.43664 9.46956-4.04493 0.36573-0.38325 0.95484-0.44675999999999993 1.39503-0.15330000000000002C77.44935 56.24577 79.75103999999999 56.94 82.125 56.94z"></path></g><g id="Regular-S" transform="matrix(1,0,0,1,1392.564970703125,603.4905078125)"><path d="M62.653580000000005 87.71000000000001c-0.23270000000000002 0-0.46898-0.02327-0.70526-0.0716-1.93857-0.38664-3.19694-2.2733-2.80851-4.21187 1.82401-9.12184 5.37179-18.75204 5.52215-19.158369999999998 0.6873600000000001-1.85444 2.7494400000000003-2.79777 4.6003-2.1139900000000003 1.85444 0.68557 2.79956 2.74586 2.1139900000000003 4.6003-0.0358 0.09487-3.50482 9.517430000000001-5.21785 18.07542C65.82009000000001 86.53397000000001 64.32544 87.71000000000001 62.653580000000005 87.71000000000001z"></path><path d="M51.906420000000004 87.71000000000001c-1.6718600000000001 0-3.1665099999999997-1.1760300000000001-3.5066100000000002-2.8783200000000004-1.3425-6.70355-3.7446800000000002-12.80208-4.71486-15.112969999999999-0.76612-1.82401 0.09129-3.92189 1.91351-4.68801s3.92189 0.08950000000000001 4.68801 1.91351c1.0543099999999999 2.5095799999999997 3.6659200000000003 9.141530000000001 5.135510000000001 16.48232 0.38843 1.93857-0.86815 3.82523-2.80851 4.21187C52.375400000000006 87.68852 52.13912 87.71000000000001 51.906420000000004 87.71000000000001z"></path><path d="M66.85292 100.24000000000001H47.707080000000005c-3.3705700000000003 0-6.239940000000001-2.28762-6.97921-5.56332-1.11338-4.93682-6.420730000000001-20.01399-17.46503-30.344080000000005l4.890280000000001-5.22859c12.27045 11.47569 18.22041 28.20503 19.53069 33.86859 0.0179 0.08055 0.08771000000000001 0.12888 0.17005 0.12888L66.71151 93.08c0.08234 0 0.15215-0.04833 0.17005-0.12888C68.23479999999999 87.09424 74.4282 69.81 87.23743999999999 58.34147000000001l4.775720000000001 5.3342c-11.447049999999999 10.24954-17.10345 26.21455-18.18103 30.999220000000005C73.09107 97.95238 70.2217 100.24000000000001 66.85292 100.24000000000001z"></path><path d="M84.43251 32.26117C93.25363 32.87872 100.24000000000001 40.24994 100.24000000000001 49.225c0 9.37602-7.628979999999999 17.005-17.005 17.005-2.3484800000000003 0-4.65579-0.48688000000000003-6.79126-1.4230500000000001C73.45801999999999 66.89409 69.91382 68.02 66.23 68.02c-2.506 0-4.94935-0.5173099999999999-7.204750000000001-1.5107599999999999C55.70838 69.7384 51.229800000000004 71.6 46.54 71.6c-4.97799 0-9.69643-2.08177-13.05805-5.66714C32.47418 66.12976 31.453879999999998 66.23 30.43 66.23c-8.88198 0-16.11-7.228020000000001-16.11-16.11 0-6.91656 4.444570000000001-12.95781 10.761479999999999-15.18457C25.53256 25.464540000000003 33.37992 17.9 42.96 17.9c5.71905 0 10.99597 2.7494400000000003 14.31821 7.18327C60.346270000000004 22.77775 64.11422 21.48 68.02 21.48 75.24444 21.48 81.64011 25.7939 84.43251 32.26117zM83.235 59.07c5.42907 0 9.845-4.41593 9.845-9.845 0-5.77633-4.992310000000001-10.37663-10.833079999999999-9.794880000000001-1.75599 0.17721-3.39384-0.9648100000000001-3.82881-2.685C77.21164999999999 31.972979999999996 72.93713 28.64 68.02 28.64c-3.4189 0-6.667750000000001 1.6647-8.68866 4.449940000000001-0.78044 1.07579-2.08356 1.62711-3.40637 1.4427400000000001-1.31386-0.18795-2.4165-1.08832-2.8640000000000003-2.33953C51.53768 27.927580000000003 47.47796 25.060000000000002 42.96 25.060000000000002c-6.35629 0-11.516860000000001 5.58122-10.62902 12.17558 0.29535 2.20886-1.37114 3.8001700000000005-3.0805900000000004 4.02571C24.82014 41.84304 21.48 45.65216 21.48 50.120000000000005c0 4.93503 4.01497 8.95 8.95 8.95 1.0435699999999999 0 2.08893-0.19153 3.10386-0.56743 0.40812000000000004-0.15036000000000002 0.82877-0.22375 1.2440499999999999-0.22375 1.1473900000000001 0 2.25719 0.55311 2.94097 1.53761C39.73084 62.71086 43.029810000000005 64.44 46.54 64.44c3.46186 0 6.73219-1.69513 8.75131-4.53228 1.12591-1.58773 3.31329-1.9797400000000003 4.92608-0.88784C61.99307 60.22455000000001 64.07305000000001 60.86 66.23 60.86c2.73333 0 5.34315-1.03999 7.347950000000001-2.92665 1.1921400000000002-1.12412 2.99646-1.29417 4.378340000000001-0.40991000000000005C79.54402 58.53479 81.36982 59.07 83.235 59.07z"></path></g><g id="Black-S" transform="matrix(1,0,0,1,2870.4000244140625,597.7705078125)"><path d="M68.2535 92.75c-0.2275 0-0.4585-0.02275-0.6895-0.07-1.8952499999999999-0.378-3.1255-2.2225-2.74575-4.11775 1.93725-9.693249999999999 4.28225-14.62825 4.382-14.833000000000002 0.8382499999999999-1.74125 2.9295-2.471 4.67075-1.6345 1.74125 0.8382499999999999 2.4745 2.9295 1.6345 4.67075-0.01575 0.035-2.08075 4.448499999999999-3.8255 13.168750000000001C71.34925 91.60025 69.888 92.75 68.2535 92.75z"></path><path d="M57.7465 92.75c-1.6345 0-3.09575-1.1515-3.4282500000000002-2.814-1.74125-8.706249999999999-3.8360000000000003-13.1145-3.857-13.15825-0.8365-1.73775-0.112-3.829 1.6222500000000002-4.672499999999999 1.736-0.84 3.82375-0.126 4.6690000000000005 1.6047500000000001 0.1015 0.2065 2.4867500000000002 5.1485 4.427499999999999 14.854 0.37975 1.8952499999999999-0.8505 3.73975-2.74575 4.11775C58.205 92.729 57.974000000000004 92.75 57.7465 92.75z"></path><path d="M72.877 108.5H53.123000000000005c-3.563 0-6.73925-2.12625-8.090250000000001-5.416250000000001-2.8594999999999997-7.056-7.346500000000001-18.40125-14.535499999999999-30.383499999999998l9.00375-5.40225c7.593250000000001 12.65425 12.38125 24.73625 14.7595 30.597C54.2885 97.9615 54.34975 98 54.421499999999995 98h17.158749999999998c0.07175000000000001 0 0.133-0.0385 0.15925-0.10325 2.3835-5.874750000000001 7.15925-17.93225 14.7595-30.597l9.00375 5.40225c-7.22925 12.0505-11.73725 23.485-14.53725 30.38525C79.61625 106.37375 76.44 108.5 72.877 108.5z"></path><path d="M93.18575 33.482749999999996C102.83525 34.95975 110.25 43.317750000000004 110.25 53.375 110.25 64.47175 101.22175 73.5 90.125 73.5c-1.022 0-2.03525-0.077-3.03275-0.22925C83.13550000000001 76.762 78.00275 78.75 72.625 78.75c-2.3922499999999998 0-4.7355-0.38675-6.9615-1.13575C61.97975 80.57875 57.356249999999996 82.25 52.5 82.25c-6.1005 0-11.745999999999999-2.6005-15.67125-7.024500000000001C36.504999999999995 75.24300000000001 36.1795 75.25 35.854 75.25c-11.1055 0-20.14075-9.02825-20.14075-20.125 0-7.64925 4.34525-14.479499999999998 10.87975-17.86925C28.42525 27.034 37.3835 19.25 48.125 19.25c5.8957500000000005 0 11.40125 2.38525 15.41575 6.377000000000001C66.7975 23.768500000000003 70.5215 22.75 74.375 22.75 82.15725 22.75 89.30075000000001 26.978 93.18575 33.482749999999996zM90.125 59.5c3.3775 0 6.125-2.7475 6.125-6.125 0-1.358-1.288-6.71125-6.8285-6.07775-3.36525 0.392-6.531000000000001-1.69225-7.5075-4.94025C80.92175 39.05475 77.82249999999999 36.75 74.375 36.75c-2.5812500000000003 0-5.0032499999999995 1.27575-6.48025 3.409-1.4962499999999999 2.163-4.082750000000001 3.304-6.68325 2.95575-2.60575-0.34825-4.79675-2.128-5.6735-4.606C54.4285 35.364 51.44825 33.25 48.125 33.25c-3.1675 0-8.274 2.6390000000000002-7.841749999999999 8.4245 0.259 3.5314999999999994-2.15425 6.762-5.628 7.4445-2.863 0.56175-4.942 3.087-4.942 6.00425 0 3.3775 2.7545 6.125 6.14075 6.125 0.64925 0 1.30375-0.1085 1.94425-0.32375 0.73325-0.24500000000000002 1.4805-0.36224999999999996 2.219-0.36224999999999996 2.576 0 5.02425 1.428 6.244 3.83425C47.465250000000005 66.77475 49.85575 68.25 52.5 68.25c2.33275 0 4.5045-1.1585 5.81175-3.0975 1.8900000000000001-2.80175 6.20725-4.34525 9.814-1.8235000000000001C69.45575 64.25825 71.01150000000001 64.75 72.625 64.75c2.5655 0 4.978750000000001-1.2635 6.4575-3.38275 1.9180000000000001-2.74575 5.5125-3.7485 8.5715-2.394C88.44325 59.32325 89.2745 59.5 90.125 59.5z"></path></g></g></svg>